<mxfile host="Electron" modified="2024-03-24T16:50:11.971Z" agent="Mozilla/5.0 (Windows NT 10.0; Win64; x64) AppleWebKit/537.36 (KHTML, like Gecko) draw.io/23.1.5 Chrome/120.0.6099.109 Electron/28.1.0 Safari/537.36" version="23.1.5" etag="Qs3zXvlBdE9zKaYIHn-a" type="device" pages="2">
  <diagram name="Dark" id="lye6Jjw_iSvx5hqJg524">
    <mxGraphModel dx="-1515" dy="1087" grid="1" gridSize="10" guides="1" tooltips="1" connect="1" arrows="1" fold="1" page="1" pageScale="1" pageWidth="850" pageHeight="1100" math="0" shadow="0">
      <root>
        <mxCell id="0" />
        <mxCell id="1" parent="0" />
        <mxCell id="jyjrXBeGag7pcf7ObZyp-207" value="Batch Generator" style="swimlane;fontSize=24;startSize=40;swimlaneFillColor=#272b2e;fillColor=#272b2e;fontColor=#FFFFFF;" vertex="1" parent="1">
          <mxGeometry x="3530" y="240" width="1520" height="1540" as="geometry">
            <mxRectangle x="3530" y="240" width="230" height="40" as="alternateBounds" />
          </mxGeometry>
        </mxCell>
        <mxCell id="jyjrXBeGag7pcf7ObZyp-208" value="" style="swimlane;startSize=0;rounded=1;fillStyle=auto;shadow=0;swimlaneFillColor=#33373b;strokeColor=none;fillColor=none;swimlaneLine=1;glass=0;" vertex="1" parent="jyjrXBeGag7pcf7ObZyp-207">
          <mxGeometry x="20" y="60" width="710" height="700" as="geometry">
            <mxRectangle x="1730" y="190" width="50" height="40" as="alternateBounds" />
          </mxGeometry>
        </mxCell>
        <mxCell id="jyjrXBeGag7pcf7ObZyp-209" value="Search" style="rounded=1;whiteSpace=wrap;html=1;fillColor=#33373b;fontColor=#FFFFFF;strokeColor=#6c757d;" vertex="1" parent="jyjrXBeGag7pcf7ObZyp-208">
          <mxGeometry x="20" y="146.89" width="300" height="40" as="geometry" />
        </mxCell>
        <mxCell id="jyjrXBeGag7pcf7ObZyp-210" value="" style="rounded=0;whiteSpace=wrap;html=1;fillColor=#33373b;strokeColor=#6c757d;" vertex="1" parent="jyjrXBeGag7pcf7ObZyp-208">
          <mxGeometry x="20" y="188" width="300" height="492" as="geometry" />
        </mxCell>
        <mxCell id="jyjrXBeGag7pcf7ObZyp-211" value="1" style="rounded=1;whiteSpace=wrap;html=1;fillColor=#33373b;strokeColor=#6C757D;fontColor=#FFFFFF;" vertex="1" parent="jyjrXBeGag7pcf7ObZyp-208">
          <mxGeometry x="430" y="198" width="230" height="30" as="geometry" />
        </mxCell>
        <mxCell id="jyjrXBeGag7pcf7ObZyp-214" value="Param 1" style="text;html=1;align=center;verticalAlign=middle;whiteSpace=wrap;rounded=0;fontColor=#FFFFFF;" vertex="1" parent="jyjrXBeGag7pcf7ObZyp-208">
          <mxGeometry x="360" y="198" width="60" height="30" as="geometry" />
        </mxCell>
        <mxCell id="jyjrXBeGag7pcf7ObZyp-215" value="Param 2" style="text;html=1;align=center;verticalAlign=middle;whiteSpace=wrap;rounded=0;fontColor=#FFFFFF;" vertex="1" parent="jyjrXBeGag7pcf7ObZyp-208">
          <mxGeometry x="360" y="238" width="60" height="30" as="geometry" />
        </mxCell>
        <mxCell id="jyjrXBeGag7pcf7ObZyp-216" value="Param 3" style="text;html=1;align=center;verticalAlign=middle;whiteSpace=wrap;rounded=0;fontColor=#FFFFFF;" vertex="1" parent="jyjrXBeGag7pcf7ObZyp-208">
          <mxGeometry x="360" y="278" width="60" height="30" as="geometry" />
        </mxCell>
        <mxCell id="jyjrXBeGag7pcf7ObZyp-217" value="Input 1" style="text;strokeColor=none;fillColor=none;align=left;verticalAlign=middle;spacingLeft=4;spacingRight=4;overflow=hidden;points=[[0,0.5],[1,0.5]];portConstraint=eastwest;rotatable=0;whiteSpace=wrap;html=1;fontColor=#FFFFFF;" vertex="1" parent="jyjrXBeGag7pcf7ObZyp-208">
          <mxGeometry x="20" y="188" width="300" height="30" as="geometry" />
        </mxCell>
        <mxCell id="jyjrXBeGag7pcf7ObZyp-218" value="Input 2" style="text;align=left;verticalAlign=middle;spacingLeft=4;spacingRight=4;overflow=hidden;points=[[0,0.5],[1,0.5]];portConstraint=eastwest;rotatable=0;whiteSpace=wrap;html=1;fillColor=none;fillStyle=solid;fontColor=#2077e9;" vertex="1" parent="jyjrXBeGag7pcf7ObZyp-208">
          <mxGeometry x="20" y="218" width="300" height="30" as="geometry" />
        </mxCell>
        <mxCell id="jyjrXBeGag7pcf7ObZyp-219" value="Input 3" style="text;strokeColor=none;fillColor=#40454b;align=left;verticalAlign=middle;spacingLeft=4;spacingRight=4;overflow=hidden;points=[[0,0.5],[1,0.5]];portConstraint=eastwest;rotatable=0;whiteSpace=wrap;html=1;fontColor=#FFFFFF;" vertex="1" parent="jyjrXBeGag7pcf7ObZyp-208">
          <mxGeometry x="20" y="248" width="300" height="30" as="geometry" />
        </mxCell>
        <mxCell id="jyjrXBeGag7pcf7ObZyp-220" value="Input 6" style="text;strokeColor=none;fillColor=none;align=left;verticalAlign=middle;spacingLeft=4;spacingRight=4;overflow=hidden;points=[[0,0.5],[1,0.5]];portConstraint=eastwest;rotatable=0;whiteSpace=wrap;html=1;fontColor=#FFFFFF;" vertex="1" parent="jyjrXBeGag7pcf7ObZyp-208">
          <mxGeometry x="20" y="338" width="300" height="30" as="geometry" />
        </mxCell>
        <mxCell id="jyjrXBeGag7pcf7ObZyp-221" value="Input 4" style="text;strokeColor=none;fillColor=none;align=left;verticalAlign=middle;spacingLeft=4;spacingRight=4;overflow=hidden;points=[[0,0.5],[1,0.5]];portConstraint=eastwest;rotatable=0;whiteSpace=wrap;html=1;fontColor=#FFFFFF;" vertex="1" parent="jyjrXBeGag7pcf7ObZyp-208">
          <mxGeometry x="20" y="278" width="300" height="30" as="geometry" />
        </mxCell>
        <mxCell id="jyjrXBeGag7pcf7ObZyp-222" value="Input 5" style="text;strokeColor=none;fillColor=none;align=left;verticalAlign=middle;spacingLeft=4;spacingRight=4;overflow=hidden;points=[[0,0.5],[1,0.5]];portConstraint=eastwest;rotatable=0;whiteSpace=wrap;html=1;fontColor=#2077e9;" vertex="1" parent="jyjrXBeGag7pcf7ObZyp-208">
          <mxGeometry x="20" y="308" width="300" height="30" as="geometry" />
        </mxCell>
        <mxCell id="jyjrXBeGag7pcf7ObZyp-223" value="" style="html=1;verticalLabelPosition=bottom;align=center;labelBackgroundColor=#ffffff;verticalAlign=top;strokeWidth=2;strokeColor=#FFFFFF;shadow=0;dashed=0;shape=mxgraph.ios7.icons.looking_glass;fillColor=#33373b;" vertex="1" parent="jyjrXBeGag7pcf7ObZyp-208">
          <mxGeometry x="30" y="156.89" width="20" height="20" as="geometry" />
        </mxCell>
        <mxCell id="jyjrXBeGag7pcf7ObZyp-224" value="Distribution" style="rounded=1;whiteSpace=wrap;html=1;strokeColor=#6c757d;fillColor=#33373b;fontColor=#FFFFFF;" vertex="1" parent="jyjrXBeGag7pcf7ObZyp-208">
          <mxGeometry x="360" y="146.89" width="300" height="40" as="geometry" />
        </mxCell>
        <mxCell id="jyjrXBeGag7pcf7ObZyp-225" value="" style="triangle;whiteSpace=wrap;html=1;direction=south;fillColor=#6c757d;strokeColor=none;" vertex="1" parent="jyjrXBeGag7pcf7ObZyp-208">
          <mxGeometry x="627.5" y="161.89" width="20" height="10" as="geometry" />
        </mxCell>
        <mxCell id="jyjrXBeGag7pcf7ObZyp-226" value="" style="strokeWidth=1;html=1;shadow=0;dashed=0;shape=mxgraph.android.rrect;rSize=0;fillColor=none;strokeColor=none;" vertex="1" parent="jyjrXBeGag7pcf7ObZyp-208">
          <mxGeometry x="20" y="60" width="140" height="30" as="geometry" />
        </mxCell>
        <mxCell id="jyjrXBeGag7pcf7ObZyp-227" value="Target" style="strokeWidth=1;html=1;shadow=0;dashed=0;shape=mxgraph.android.anchor;fontStyle=1;fontColor=#FFFFFF;" vertex="1" parent="jyjrXBeGag7pcf7ObZyp-226">
          <mxGeometry x="40" width="50" height="30" as="geometry" />
        </mxCell>
        <mxCell id="jyjrXBeGag7pcf7ObZyp-228" value="Missile" style="strokeWidth=1;html=1;shadow=0;dashed=0;shape=mxgraph.android.anchor;fontStyle=1;fontColor=#FFFFFF;" vertex="1" parent="jyjrXBeGag7pcf7ObZyp-226">
          <mxGeometry x="90" width="50" height="30" as="geometry" />
        </mxCell>
        <mxCell id="jyjrXBeGag7pcf7ObZyp-229" value="Main" style="strokeWidth=1;html=1;shadow=0;dashed=0;shape=mxgraph.android.rrect;rSize=0;fontStyle=1;fillColor=none;strokeColor=none;fontColor=#FFFFFF;" vertex="1" parent="jyjrXBeGag7pcf7ObZyp-226">
          <mxGeometry width="40" height="30" as="geometry" />
        </mxCell>
        <mxCell id="jyjrXBeGag7pcf7ObZyp-230" value="" style="strokeWidth=1;html=1;shadow=0;dashed=0;shape=mxgraph.android.rrect;rSize=0;fillColor=#FFFFFF;strokeColor=none;" vertex="1" parent="jyjrXBeGag7pcf7ObZyp-229">
          <mxGeometry y="27" width="40" height="3" as="geometry" />
        </mxCell>
        <mxCell id="jyjrXBeGag7pcf7ObZyp-231" value="&lt;h1 style=&quot;font-size: 18px;&quot;&gt;Inputs&lt;/h1&gt;" style="text;html=1;spacing=5;spacingTop=-20;whiteSpace=wrap;overflow=hidden;rounded=0;fontSize=18;align=left;verticalAlign=middle;fontColor=#FFFFFF;" vertex="1" parent="jyjrXBeGag7pcf7ObZyp-208">
          <mxGeometry x="20" y="20" width="63" height="22" as="geometry" />
        </mxCell>
        <mxCell id="jyjrXBeGag7pcf7ObZyp-330" value="3" style="rounded=1;whiteSpace=wrap;html=1;fillColor=#33373b;strokeColor=#6c757d;fontColor=#FFFFFF;" vertex="1" parent="jyjrXBeGag7pcf7ObZyp-208">
          <mxGeometry x="430" y="278" width="230" height="30" as="geometry" />
        </mxCell>
        <mxCell id="jyjrXBeGag7pcf7ObZyp-329" value="2" style="rounded=1;whiteSpace=wrap;html=1;fillColor=#33373b;strokeColor=#6c757d;fontColor=#FFFFFF;" vertex="1" parent="jyjrXBeGag7pcf7ObZyp-208">
          <mxGeometry x="430" y="238" width="230" height="30" as="geometry" />
        </mxCell>
        <mxCell id="jyjrXBeGag7pcf7ObZyp-232" value="" style="swimlane;startSize=0;swimlaneFillColor=#33373b;strokeColor=none;fillColor=none;" vertex="1" parent="jyjrXBeGag7pcf7ObZyp-207">
          <mxGeometry x="780" y="60" width="710" height="710" as="geometry">
            <mxRectangle x="2490" y="190" width="50" height="40" as="alternateBounds" />
          </mxGeometry>
        </mxCell>
        <mxCell id="jyjrXBeGag7pcf7ObZyp-331" value="" style="rounded=0;whiteSpace=wrap;html=1;fillColor=#33373b;strokeColor=#6c757d;" vertex="1" parent="jyjrXBeGag7pcf7ObZyp-232">
          <mxGeometry x="20" y="192" width="300" height="492" as="geometry" />
        </mxCell>
        <mxCell id="jyjrXBeGag7pcf7ObZyp-235" value="1" style="rounded=1;whiteSpace=wrap;html=1;fontColor=#FFFFFF;fillColor=#33373b;strokeColor=#6c757d;" vertex="1" parent="jyjrXBeGag7pcf7ObZyp-232">
          <mxGeometry x="430" y="195.89" width="230" height="30" as="geometry" />
        </mxCell>
        <mxCell id="jyjrXBeGag7pcf7ObZyp-236" value="2" style="rounded=1;whiteSpace=wrap;html=1;fontColor=#FFFFFF;fillColor=#33373b;strokeColor=#6c757d;" vertex="1" parent="jyjrXBeGag7pcf7ObZyp-232">
          <mxGeometry x="430" y="235.89" width="230" height="30" as="geometry" />
        </mxCell>
        <mxCell id="jyjrXBeGag7pcf7ObZyp-237" value="3" style="rounded=1;whiteSpace=wrap;html=1;glass=0;fontColor=#FFFFFF;fillColor=#33373b;strokeColor=#6c757d;" vertex="1" parent="jyjrXBeGag7pcf7ObZyp-232">
          <mxGeometry x="430" y="275.89" width="230" height="30" as="geometry" />
        </mxCell>
        <mxCell id="jyjrXBeGag7pcf7ObZyp-238" value="Start" style="text;html=1;align=left;verticalAlign=middle;whiteSpace=wrap;rounded=0;fontColor=#FFFFFF;" vertex="1" parent="jyjrXBeGag7pcf7ObZyp-232">
          <mxGeometry x="360" y="195.89" width="60" height="30" as="geometry" />
        </mxCell>
        <mxCell id="jyjrXBeGag7pcf7ObZyp-239" value="Stop" style="text;html=1;align=left;verticalAlign=middle;whiteSpace=wrap;rounded=0;fontColor=#FFFFFF;" vertex="1" parent="jyjrXBeGag7pcf7ObZyp-232">
          <mxGeometry x="360" y="235.89" width="60" height="30" as="geometry" />
        </mxCell>
        <mxCell id="jyjrXBeGag7pcf7ObZyp-240" value="Decimation" style="text;html=1;align=left;verticalAlign=middle;whiteSpace=wrap;rounded=0;fontColor=#FFFFFF;" vertex="1" parent="jyjrXBeGag7pcf7ObZyp-232">
          <mxGeometry x="360" y="275.89" width="60" height="30" as="geometry" />
        </mxCell>
        <mxCell id="jyjrXBeGag7pcf7ObZyp-241" value="Output 1" style="text;strokeColor=none;fillColor=none;align=left;verticalAlign=middle;spacingLeft=4;spacingRight=4;overflow=hidden;points=[[0,0.5],[1,0.5]];portConstraint=eastwest;rotatable=0;whiteSpace=wrap;html=1;fontColor=#FFFFFF;" vertex="1" parent="jyjrXBeGag7pcf7ObZyp-232">
          <mxGeometry x="20" y="192" width="300" height="30" as="geometry" />
        </mxCell>
        <mxCell id="jyjrXBeGag7pcf7ObZyp-242" value="Output 2" style="text;align=left;verticalAlign=middle;spacingLeft=4;spacingRight=4;overflow=hidden;points=[[0,0.5],[1,0.5]];portConstraint=eastwest;rotatable=0;whiteSpace=wrap;html=1;fillColor=none;fillStyle=solid;fontColor=#2077e9;" vertex="1" parent="jyjrXBeGag7pcf7ObZyp-232">
          <mxGeometry x="20" y="222" width="300" height="30" as="geometry" />
        </mxCell>
        <mxCell id="jyjrXBeGag7pcf7ObZyp-243" value="Output 3" style="text;strokeColor=none;fillColor=#40454b;align=left;verticalAlign=middle;spacingLeft=4;spacingRight=4;overflow=hidden;points=[[0,0.5],[1,0.5]];portConstraint=eastwest;rotatable=0;whiteSpace=wrap;html=1;fontColor=#FFFFFF;" vertex="1" parent="jyjrXBeGag7pcf7ObZyp-232">
          <mxGeometry x="20" y="252" width="300" height="30" as="geometry" />
        </mxCell>
        <mxCell id="jyjrXBeGag7pcf7ObZyp-244" value="Output 6" style="text;strokeColor=none;fillColor=none;align=left;verticalAlign=middle;spacingLeft=4;spacingRight=4;overflow=hidden;points=[[0,0.5],[1,0.5]];portConstraint=eastwest;rotatable=0;whiteSpace=wrap;html=1;fontColor=#FFFFFF;" vertex="1" parent="jyjrXBeGag7pcf7ObZyp-232">
          <mxGeometry x="20" y="342" width="300" height="30" as="geometry" />
        </mxCell>
        <mxCell id="jyjrXBeGag7pcf7ObZyp-245" value="Output 4" style="text;strokeColor=none;fillColor=none;align=left;verticalAlign=middle;spacingLeft=4;spacingRight=4;overflow=hidden;points=[[0,0.5],[1,0.5]];portConstraint=eastwest;rotatable=0;whiteSpace=wrap;html=1;fontColor=#FFFFFF;" vertex="1" parent="jyjrXBeGag7pcf7ObZyp-232">
          <mxGeometry x="20" y="282" width="300" height="30" as="geometry" />
        </mxCell>
        <mxCell id="jyjrXBeGag7pcf7ObZyp-246" value="Output 5" style="text;strokeColor=none;fillColor=none;align=left;verticalAlign=middle;spacingLeft=4;spacingRight=4;overflow=hidden;points=[[0,0.5],[1,0.5]];portConstraint=eastwest;rotatable=0;whiteSpace=wrap;html=1;fontColor=#2077e9;" vertex="1" parent="jyjrXBeGag7pcf7ObZyp-232">
          <mxGeometry x="20" y="312" width="300" height="30" as="geometry" />
        </mxCell>
        <mxCell id="jyjrXBeGag7pcf7ObZyp-248" value="" style="whiteSpace=wrap;html=1;aspect=fixed;fillColor=#33373b;strokeColor=#6c757d;" vertex="1" parent="jyjrXBeGag7pcf7ObZyp-232">
          <mxGeometry x="360" y="160.89" width="20" height="20" as="geometry" />
        </mxCell>
        <mxCell id="jyjrXBeGag7pcf7ObZyp-249" value="" style="html=1;verticalLabelPosition=bottom;labelBackgroundColor=#ffffff;verticalAlign=top;shadow=0;dashed=0;strokeWidth=2;shape=mxgraph.ios7.misc.check;strokeColor=#0080f0;" vertex="1" parent="jyjrXBeGag7pcf7ObZyp-232">
          <mxGeometry x="365" y="166.89" width="10" height="8" as="geometry" />
        </mxCell>
        <mxCell id="jyjrXBeGag7pcf7ObZyp-250" value="Enable" style="text;html=1;align=left;verticalAlign=middle;whiteSpace=wrap;rounded=0;fontColor=#FFFFFF;" vertex="1" parent="jyjrXBeGag7pcf7ObZyp-232">
          <mxGeometry x="430" y="155.89" width="60" height="30" as="geometry" />
        </mxCell>
        <mxCell id="jyjrXBeGag7pcf7ObZyp-251" value="" style="whiteSpace=wrap;html=1;aspect=fixed;fillColor=#33373b;strokeColor=#6c757d;" vertex="1" parent="jyjrXBeGag7pcf7ObZyp-232">
          <mxGeometry x="290" y="257" width="20" height="20" as="geometry" />
        </mxCell>
        <mxCell id="jyjrXBeGag7pcf7ObZyp-252" value="" style="html=1;verticalLabelPosition=bottom;labelBackgroundColor=#ffffff;verticalAlign=top;shadow=0;dashed=0;strokeWidth=2;shape=mxgraph.ios7.misc.check;strokeColor=#0080f0;" vertex="1" parent="jyjrXBeGag7pcf7ObZyp-232">
          <mxGeometry x="295" y="263" width="10" height="8" as="geometry" />
        </mxCell>
        <mxCell id="jyjrXBeGag7pcf7ObZyp-253" value="" style="whiteSpace=wrap;html=1;aspect=fixed;fillColor=#33373b;strokeColor=#6c757d;" vertex="1" parent="jyjrXBeGag7pcf7ObZyp-232">
          <mxGeometry x="290" y="347" width="20" height="20" as="geometry" />
        </mxCell>
        <mxCell id="jyjrXBeGag7pcf7ObZyp-254" value="" style="whiteSpace=wrap;html=1;aspect=fixed;fillColor=#33373b;strokeColor=#6c757d;" vertex="1" parent="jyjrXBeGag7pcf7ObZyp-232">
          <mxGeometry x="290" y="287" width="20" height="20" as="geometry" />
        </mxCell>
        <mxCell id="jyjrXBeGag7pcf7ObZyp-255" value="" style="whiteSpace=wrap;html=1;aspect=fixed;fillColor=#33373b;strokeColor=#6c757d;" vertex="1" parent="jyjrXBeGag7pcf7ObZyp-232">
          <mxGeometry x="290" y="197" width="20" height="20" as="geometry" />
        </mxCell>
        <mxCell id="jyjrXBeGag7pcf7ObZyp-256" value="" style="whiteSpace=wrap;html=1;aspect=fixed;fillColor=#33373b;strokeColor=#6c757d;" vertex="1" parent="jyjrXBeGag7pcf7ObZyp-232">
          <mxGeometry x="290" y="227" width="20" height="20" as="geometry" />
        </mxCell>
        <mxCell id="jyjrXBeGag7pcf7ObZyp-257" value="" style="whiteSpace=wrap;html=1;aspect=fixed;fillColor=#33373b;strokeColor=#6c757d;" vertex="1" parent="jyjrXBeGag7pcf7ObZyp-232">
          <mxGeometry x="290" y="317" width="20" height="20" as="geometry" />
        </mxCell>
        <mxCell id="jyjrXBeGag7pcf7ObZyp-258" value="" style="html=1;verticalLabelPosition=bottom;labelBackgroundColor=#ffffff;verticalAlign=top;shadow=0;dashed=0;strokeWidth=2;shape=mxgraph.ios7.misc.check;strokeColor=#0080f0;" vertex="1" parent="jyjrXBeGag7pcf7ObZyp-232">
          <mxGeometry x="295" y="323" width="10" height="8" as="geometry" />
        </mxCell>
        <mxCell id="jyjrXBeGag7pcf7ObZyp-259" value="" style="strokeWidth=1;html=1;shadow=0;dashed=0;shape=mxgraph.android.rrect;rSize=0;fillColor=none;strokeColor=none;fontColor=#FFFFFF;" vertex="1" parent="jyjrXBeGag7pcf7ObZyp-232">
          <mxGeometry x="20" y="64" width="140" height="30" as="geometry" />
        </mxCell>
        <mxCell id="jyjrXBeGag7pcf7ObZyp-260" value="Main" style="strokeWidth=1;html=1;shadow=0;dashed=0;shape=mxgraph.android.anchor;fontStyle=1;fontColor=#FFFFFF;" vertex="1" parent="jyjrXBeGag7pcf7ObZyp-259">
          <mxGeometry width="40" height="30" as="geometry" />
        </mxCell>
        <mxCell id="jyjrXBeGag7pcf7ObZyp-261" value="Missile" style="strokeWidth=1;html=1;shadow=0;dashed=0;shape=mxgraph.android.anchor;fontStyle=1;fontColor=#FFFFFF;" vertex="1" parent="jyjrXBeGag7pcf7ObZyp-259">
          <mxGeometry x="90" width="50" height="30" as="geometry" />
        </mxCell>
        <mxCell id="jyjrXBeGag7pcf7ObZyp-262" value="Target" style="strokeWidth=1;html=1;shadow=0;dashed=0;shape=mxgraph.android.rrect;rSize=0;fontStyle=1;fillColor=none;strokeColor=none;fontColor=#FFFFFF;" vertex="1" parent="jyjrXBeGag7pcf7ObZyp-259">
          <mxGeometry x="40" width="50" height="30" as="geometry" />
        </mxCell>
        <mxCell id="jyjrXBeGag7pcf7ObZyp-263" value="" style="strokeWidth=1;html=1;shadow=0;dashed=0;shape=mxgraph.android.rrect;rSize=0;fillColor=#FFFFFF;strokeColor=none;" vertex="1" parent="jyjrXBeGag7pcf7ObZyp-262">
          <mxGeometry y="27" width="50" height="3" as="geometry" />
        </mxCell>
        <mxCell id="jyjrXBeGag7pcf7ObZyp-264" value="&lt;h1 style=&quot;font-size: 18px;&quot;&gt;Outputs&lt;/h1&gt;" style="text;html=1;spacing=5;spacingTop=-20;whiteSpace=wrap;overflow=hidden;rounded=0;fontSize=18;align=left;verticalAlign=middle;fontColor=#FFFFFF;" vertex="1" parent="jyjrXBeGag7pcf7ObZyp-232">
          <mxGeometry x="20" y="24" width="81.5" height="22" as="geometry" />
        </mxCell>
        <mxCell id="jyjrXBeGag7pcf7ObZyp-265" value="Target 1" style="rounded=1;whiteSpace=wrap;html=1;fillColor=#33373b;fontColor=#FFFFFF;strokeColor=#6c757d;" vertex="1" parent="jyjrXBeGag7pcf7ObZyp-232">
          <mxGeometry x="20" y="104" width="300" height="40" as="geometry" />
        </mxCell>
        <mxCell id="jyjrXBeGag7pcf7ObZyp-266" value="" style="triangle;whiteSpace=wrap;html=1;direction=south;strokeColor=none;fillColor=#6c757d;" vertex="1" parent="jyjrXBeGag7pcf7ObZyp-232">
          <mxGeometry x="290" y="119" width="20" height="10" as="geometry" />
        </mxCell>
        <mxCell id="jyjrXBeGag7pcf7ObZyp-267" value="" style="rounded=1;whiteSpace=wrap;html=1;fillColor=#6c757d;strokeColor=none;" vertex="1" parent="jyjrXBeGag7pcf7ObZyp-232">
          <mxGeometry x="280" y="64" width="40" height="30" as="geometry" />
        </mxCell>
        <mxCell id="jyjrXBeGag7pcf7ObZyp-268" value="" style="shape=cross;whiteSpace=wrap;html=1;fillColor=#6c757d;strokeColor=#FFFFFF;" vertex="1" parent="jyjrXBeGag7pcf7ObZyp-232">
          <mxGeometry x="290" y="69.5" width="20" height="19" as="geometry" />
        </mxCell>
        <mxCell id="jyjrXBeGag7pcf7ObZyp-332" value="Search" style="rounded=1;whiteSpace=wrap;html=1;fillColor=#33373b;fontColor=#FFFFFF;strokeColor=#6c757d;" vertex="1" parent="jyjrXBeGag7pcf7ObZyp-232">
          <mxGeometry x="20" y="150.89" width="300" height="40" as="geometry" />
        </mxCell>
        <mxCell id="jyjrXBeGag7pcf7ObZyp-333" value="" style="html=1;verticalLabelPosition=bottom;align=center;labelBackgroundColor=#ffffff;verticalAlign=top;strokeWidth=2;strokeColor=#FFFFFF;shadow=0;dashed=0;shape=mxgraph.ios7.icons.looking_glass;fillColor=#33373b;" vertex="1" parent="jyjrXBeGag7pcf7ObZyp-232">
          <mxGeometry x="30" y="160.89" width="20" height="20" as="geometry" />
        </mxCell>
        <mxCell id="jyjrXBeGag7pcf7ObZyp-269" value="" style="swimlane;startSize=0;strokeColor=none;swimlaneFillColor=#33373b;fillColor=none;" vertex="1" parent="jyjrXBeGag7pcf7ObZyp-207">
          <mxGeometry x="780" y="820" width="710" height="700" as="geometry" />
        </mxCell>
        <mxCell id="jyjrXBeGag7pcf7ObZyp-270" value="Num MC" style="text;html=1;align=left;verticalAlign=middle;whiteSpace=wrap;rounded=0;fontColor=#FFFFFF;" vertex="1" parent="jyjrXBeGag7pcf7ObZyp-269">
          <mxGeometry x="362.5" y="156.5" width="60" height="30" as="geometry" />
        </mxCell>
        <mxCell id="jyjrXBeGag7pcf7ObZyp-271" value="Num Runs" style="text;html=1;align=left;verticalAlign=middle;whiteSpace=wrap;rounded=0;fontColor=#FFFFFF;" vertex="1" parent="jyjrXBeGag7pcf7ObZyp-269">
          <mxGeometry x="362.5" y="350" width="75" height="30" as="geometry" />
        </mxCell>
        <mxCell id="jyjrXBeGag7pcf7ObZyp-272" value="2000" style="text;html=1;align=right;verticalAlign=middle;whiteSpace=wrap;rounded=0;fontColor=#FFFFFF;" vertex="1" parent="jyjrXBeGag7pcf7ObZyp-269">
          <mxGeometry x="432.5" y="350" width="50" height="30" as="geometry" />
        </mxCell>
        <mxCell id="jyjrXBeGag7pcf7ObZyp-275" value="Save last point" style="text;html=1;align=left;verticalAlign=middle;whiteSpace=wrap;rounded=0;fontColor=#FFFFFF;" vertex="1" parent="jyjrXBeGag7pcf7ObZyp-269">
          <mxGeometry x="432.5" y="232" width="85" height="30" as="geometry" />
        </mxCell>
        <mxCell id="jyjrXBeGag7pcf7ObZyp-276" value="" style="whiteSpace=wrap;html=1;aspect=fixed;fillColor=#33373b;strokeColor=#6c757d;fontColor=#FFFFFF;" vertex="1" parent="jyjrXBeGag7pcf7ObZyp-269">
          <mxGeometry x="362.5" y="267" width="20" height="20" as="geometry" />
        </mxCell>
        <mxCell id="jyjrXBeGag7pcf7ObZyp-277" value="Use point value" style="text;html=1;align=left;verticalAlign=middle;whiteSpace=wrap;rounded=0;fontColor=#FFFFFF;" vertex="1" parent="jyjrXBeGag7pcf7ObZyp-269">
          <mxGeometry x="432.5" y="262" width="85" height="30" as="geometry" />
        </mxCell>
        <mxCell id="jyjrXBeGag7pcf7ObZyp-278" value="Generate" style="rounded=1;whiteSpace=wrap;html=1;fillColor=#2077e9;strokeColor=none;fontColor=#FFFFFF;" vertex="1" parent="jyjrXBeGag7pcf7ObZyp-269">
          <mxGeometry x="540" y="630" width="150" height="50" as="geometry" />
        </mxCell>
        <mxCell id="jyjrXBeGag7pcf7ObZyp-279" value="Cancel" style="rounded=1;whiteSpace=wrap;html=1;fontColor=#FFFFFF;fillColor=#6c757d;strokeColor=none;" vertex="1" parent="jyjrXBeGag7pcf7ObZyp-269">
          <mxGeometry x="390" y="630" width="150" height="50" as="geometry" />
        </mxCell>
        <mxCell id="jyjrXBeGag7pcf7ObZyp-280" value="1" style="rounded=1;whiteSpace=wrap;html=1;fillColor=#33373b;strokeColor=#6c757d;fontColor=#FFFFFF;" vertex="1" parent="jyjrXBeGag7pcf7ObZyp-269">
          <mxGeometry x="362.5" y="186.5" width="230" height="30" as="geometry" />
        </mxCell>
        <mxCell id="jyjrXBeGag7pcf7ObZyp-281" value="Num Plots" style="text;html=1;align=left;verticalAlign=middle;whiteSpace=wrap;rounded=0;fontColor=#FFFFFF;" vertex="1" parent="jyjrXBeGag7pcf7ObZyp-269">
          <mxGeometry x="362.5" y="380" width="75" height="30" as="geometry" />
        </mxCell>
        <mxCell id="jyjrXBeGag7pcf7ObZyp-282" value="3" style="text;html=1;align=right;verticalAlign=middle;whiteSpace=wrap;rounded=0;fontColor=#FFFFFF;" vertex="1" parent="jyjrXBeGag7pcf7ObZyp-269">
          <mxGeometry x="432.5" y="380" width="50" height="30" as="geometry" />
        </mxCell>
        <mxCell id="jyjrXBeGag7pcf7ObZyp-284" value="" style="rounded=0;whiteSpace=wrap;html=1;fillColor=#33373b;strokeColor=#6c757d;fontColor=#FFFFFF;" vertex="1" parent="jyjrXBeGag7pcf7ObZyp-269">
          <mxGeometry x="20" y="130" width="300" height="550" as="geometry" />
        </mxCell>
        <mxCell id="jyjrXBeGag7pcf7ObZyp-285" value="Plot 1" style="text;strokeColor=none;fillColor=none;align=left;verticalAlign=middle;spacingLeft=4;spacingRight=4;overflow=hidden;points=[[0,0.5],[1,0.5]];portConstraint=eastwest;rotatable=0;whiteSpace=wrap;html=1;fontColor=#FFFFFF;" vertex="1" parent="jyjrXBeGag7pcf7ObZyp-269">
          <mxGeometry x="20" y="130" width="300" height="30" as="geometry" />
        </mxCell>
        <mxCell id="jyjrXBeGag7pcf7ObZyp-286" value="Plot 2" style="text;align=left;verticalAlign=middle;spacingLeft=4;spacingRight=4;overflow=hidden;points=[[0,0.5],[1,0.5]];portConstraint=eastwest;rotatable=0;whiteSpace=wrap;html=1;fillStyle=solid;fontColor=#FFFFFF;" vertex="1" parent="jyjrXBeGag7pcf7ObZyp-269">
          <mxGeometry x="20" y="160" width="300" height="30" as="geometry" />
        </mxCell>
        <mxCell id="jyjrXBeGag7pcf7ObZyp-287" value="Plot 3" style="text;strokeColor=none;fillColor=#40454b;align=left;verticalAlign=middle;spacingLeft=4;spacingRight=4;overflow=hidden;points=[[0,0.5],[1,0.5]];portConstraint=eastwest;rotatable=0;whiteSpace=wrap;html=1;fontColor=#FFFFFF;" vertex="1" parent="jyjrXBeGag7pcf7ObZyp-269">
          <mxGeometry x="20" y="190" width="300" height="30" as="geometry" />
        </mxCell>
        <mxCell id="jyjrXBeGag7pcf7ObZyp-288" value="Plot 6" style="text;strokeColor=none;fillColor=#40454b;align=left;verticalAlign=middle;spacingLeft=4;spacingRight=4;overflow=hidden;points=[[0,0.5],[1,0.5]];portConstraint=eastwest;rotatable=0;whiteSpace=wrap;html=1;fontColor=#FFFFFF;" vertex="1" parent="jyjrXBeGag7pcf7ObZyp-269">
          <mxGeometry x="20" y="280.0000000000002" width="300" height="30" as="geometry" />
        </mxCell>
        <mxCell id="jyjrXBeGag7pcf7ObZyp-289" value="Plot 4" style="text;strokeColor=none;fillColor=#40454b;align=left;verticalAlign=middle;spacingLeft=4;spacingRight=4;overflow=hidden;points=[[0,0.5],[1,0.5]];portConstraint=eastwest;rotatable=0;whiteSpace=wrap;html=1;fontColor=#FFFFFF;" vertex="1" parent="jyjrXBeGag7pcf7ObZyp-269">
          <mxGeometry x="20" y="220.00000000000023" width="300" height="30" as="geometry" />
        </mxCell>
        <mxCell id="jyjrXBeGag7pcf7ObZyp-290" value="Plot 5" style="text;align=left;verticalAlign=middle;spacingLeft=4;spacingRight=4;overflow=hidden;points=[[0,0.5],[1,0.5]];portConstraint=eastwest;rotatable=0;whiteSpace=wrap;html=1;fontColor=#FFFFFF;" vertex="1" parent="jyjrXBeGag7pcf7ObZyp-269">
          <mxGeometry x="20" y="250.00000000000023" width="300" height="30" as="geometry" />
        </mxCell>
        <mxCell id="jyjrXBeGag7pcf7ObZyp-292" value="Num Configs" style="text;html=1;align=left;verticalAlign=middle;whiteSpace=wrap;rounded=0;fontColor=#FFFFFF;" vertex="1" parent="jyjrXBeGag7pcf7ObZyp-269">
          <mxGeometry x="362.5" y="410" width="75" height="30" as="geometry" />
        </mxCell>
        <mxCell id="jyjrXBeGag7pcf7ObZyp-293" value="13" style="text;html=1;align=right;verticalAlign=middle;whiteSpace=wrap;rounded=0;fontColor=#FFFFFF;" vertex="1" parent="jyjrXBeGag7pcf7ObZyp-269">
          <mxGeometry x="432.5" y="410" width="50" height="30" as="geometry" />
        </mxCell>
        <mxCell id="jyjrXBeGag7pcf7ObZyp-294" value="variable_${Variable 2}_meters" style="rounded=1;whiteSpace=wrap;html=1;fillColor=#33373b;strokeColor=#6c757d;fontColor=#FFFFFF;" vertex="1" parent="jyjrXBeGag7pcf7ObZyp-269">
          <mxGeometry x="360" y="122" width="230" height="30" as="geometry" />
        </mxCell>
        <mxCell id="jyjrXBeGag7pcf7ObZyp-295" value="Name" style="text;html=1;align=left;verticalAlign=middle;whiteSpace=wrap;rounded=0;fontColor=#FFFFFF;" vertex="1" parent="jyjrXBeGag7pcf7ObZyp-269">
          <mxGeometry x="360" y="92" width="60" height="30" as="geometry" />
        </mxCell>
        <mxCell id="jyjrXBeGag7pcf7ObZyp-296" value="&lt;h1 style=&quot;font-size: 18px;&quot;&gt;Plot Teamplates&lt;/h1&gt;" style="text;html=1;spacing=5;spacingTop=-20;whiteSpace=wrap;overflow=hidden;rounded=0;fontSize=18;align=left;verticalAlign=middle;fontColor=#FFFFFF;" vertex="1" parent="jyjrXBeGag7pcf7ObZyp-269">
          <mxGeometry x="20" y="18" width="150" height="22" as="geometry" />
        </mxCell>
        <mxCell id="jyjrXBeGag7pcf7ObZyp-297" value="&lt;h1 style=&quot;font-size: 18px;&quot;&gt;Settings&lt;/h1&gt;" style="text;html=1;spacing=5;spacingTop=-20;whiteSpace=wrap;overflow=hidden;rounded=0;fontSize=18;align=left;verticalAlign=middle;fontColor=#FFFFFF;" vertex="1" parent="jyjrXBeGag7pcf7ObZyp-269">
          <mxGeometry x="360" y="18" width="150" height="22" as="geometry" />
        </mxCell>
        <mxCell id="jyjrXBeGag7pcf7ObZyp-336" value="Search" style="rounded=1;whiteSpace=wrap;html=1;fillColor=#33373b;fontColor=#FFFFFF;strokeColor=#6c757d;" vertex="1" parent="jyjrXBeGag7pcf7ObZyp-269">
          <mxGeometry x="20" y="92" width="300" height="40" as="geometry" />
        </mxCell>
        <mxCell id="jyjrXBeGag7pcf7ObZyp-337" value="" style="html=1;verticalLabelPosition=bottom;align=center;labelBackgroundColor=#ffffff;verticalAlign=top;strokeWidth=2;strokeColor=#FFFFFF;shadow=0;dashed=0;shape=mxgraph.ios7.icons.looking_glass;fillColor=#33373b;" vertex="1" parent="jyjrXBeGag7pcf7ObZyp-269">
          <mxGeometry x="30" y="102" width="20" height="20" as="geometry" />
        </mxCell>
        <mxCell id="jyjrXBeGag7pcf7ObZyp-338" value="" style="whiteSpace=wrap;html=1;aspect=fixed;fillColor=#33373b;strokeColor=#6c757d;" vertex="1" parent="jyjrXBeGag7pcf7ObZyp-269">
          <mxGeometry x="362.5" y="237" width="20" height="20" as="geometry" />
        </mxCell>
        <mxCell id="jyjrXBeGag7pcf7ObZyp-339" value="" style="html=1;verticalLabelPosition=bottom;labelBackgroundColor=#ffffff;verticalAlign=top;shadow=0;dashed=0;strokeWidth=2;shape=mxgraph.ios7.misc.check;strokeColor=#0080f0;" vertex="1" parent="jyjrXBeGag7pcf7ObZyp-269">
          <mxGeometry x="367.5" y="242" width="10" height="8" as="geometry" />
        </mxCell>
        <mxCell id="KKf5-rGVfc8oX6IRpnsa-1" value="" style="whiteSpace=wrap;html=1;aspect=fixed;fillColor=#33373b;strokeColor=#6c757d;fontColor=#FFFFFF;" vertex="1" parent="jyjrXBeGag7pcf7ObZyp-269">
          <mxGeometry x="362.5" y="297" width="20" height="20" as="geometry" />
        </mxCell>
        <mxCell id="KKf5-rGVfc8oX6IRpnsa-2" value="Disable merging" style="text;html=1;align=left;verticalAlign=middle;whiteSpace=wrap;rounded=0;fontColor=#FFFFFF;" vertex="1" parent="jyjrXBeGag7pcf7ObZyp-269">
          <mxGeometry x="432.5" y="292" width="97.5" height="30" as="geometry" />
        </mxCell>
        <mxCell id="jyjrXBeGag7pcf7ObZyp-298" value="" style="swimlane;startSize=0;fillColor=none;swimlaneFillColor=#33373b;strokeColor=none;" vertex="1" parent="jyjrXBeGag7pcf7ObZyp-207">
          <mxGeometry x="20" y="820" width="710" height="700" as="geometry" />
        </mxCell>
        <mxCell id="jyjrXBeGag7pcf7ObZyp-299" value="" style="rounded=0;whiteSpace=wrap;html=1;fillColor=#33373b;strokeColor=#6c757d;" vertex="1" parent="jyjrXBeGag7pcf7ObZyp-298">
          <mxGeometry x="20" y="130" width="300" height="540" as="geometry" />
        </mxCell>
        <mxCell id="jyjrXBeGag7pcf7ObZyp-300" value="20" style="rounded=1;whiteSpace=wrap;html=1;fontColor=#FFFFFF;fillColor=#33373b;strokeColor=#6c757d;" vertex="1" parent="jyjrXBeGag7pcf7ObZyp-298">
          <mxGeometry x="395" y="146" width="225" height="30" as="geometry" />
        </mxCell>
        <mxCell id="jyjrXBeGag7pcf7ObZyp-301" value="Input 1" style="text;strokeColor=none;fillColor=none;align=left;verticalAlign=middle;spacingLeft=4;spacingRight=4;overflow=hidden;points=[[0,0.5],[1,0.5]];portConstraint=eastwest;rotatable=0;whiteSpace=wrap;html=1;fontColor=#FFFFFF;" vertex="1" parent="jyjrXBeGag7pcf7ObZyp-298">
          <mxGeometry x="20" y="130" width="300" height="30" as="geometry" />
        </mxCell>
        <mxCell id="jyjrXBeGag7pcf7ObZyp-302" value="Input 2" style="text;align=left;verticalAlign=middle;spacingLeft=4;spacingRight=4;overflow=hidden;points=[[0,0.5],[1,0.5]];portConstraint=eastwest;rotatable=0;whiteSpace=wrap;html=1;fillColor=none;fillStyle=solid;fontColor=#2077e9;" vertex="1" parent="jyjrXBeGag7pcf7ObZyp-298">
          <mxGeometry x="20" y="160" width="300" height="30" as="geometry" />
        </mxCell>
        <mxCell id="jyjrXBeGag7pcf7ObZyp-303" value="Input 3" style="text;strokeColor=none;fillColor=#40454b;align=left;verticalAlign=middle;spacingLeft=4;spacingRight=4;overflow=hidden;points=[[0,0.5],[1,0.5]];portConstraint=eastwest;rotatable=0;whiteSpace=wrap;html=1;fontColor=#FFFFFF;" vertex="1" parent="jyjrXBeGag7pcf7ObZyp-298">
          <mxGeometry x="20" y="190" width="300" height="30" as="geometry" />
        </mxCell>
        <mxCell id="jyjrXBeGag7pcf7ObZyp-306" value="Input 5" style="text;strokeColor=none;fillColor=none;align=left;verticalAlign=middle;spacingLeft=4;spacingRight=4;overflow=hidden;points=[[0,0.5],[1,0.5]];portConstraint=eastwest;rotatable=0;whiteSpace=wrap;html=1;fontColor=#2077e9;" vertex="1" parent="jyjrXBeGag7pcf7ObZyp-298">
          <mxGeometry x="20" y="220" width="300" height="30" as="geometry" />
        </mxCell>
        <mxCell id="jyjrXBeGag7pcf7ObZyp-307" value="Add Input" style="rounded=1;whiteSpace=wrap;html=1;fontColor=#FFFFFF;fillColor=#2077e9;strokeColor=none;" vertex="1" parent="jyjrXBeGag7pcf7ObZyp-298">
          <mxGeometry x="20" y="90" width="150" height="40" as="geometry" />
        </mxCell>
        <mxCell id="jyjrXBeGag7pcf7ObZyp-308" value="Remove" style="rounded=1;whiteSpace=wrap;html=1;fontColor=#FFFFFF;fillColor=#6c757d;strokeColor=none;" vertex="1" parent="jyjrXBeGag7pcf7ObZyp-298">
          <mxGeometry x="170" y="90" width="150" height="40" as="geometry" />
        </mxCell>
        <mxCell id="jyjrXBeGag7pcf7ObZyp-309" value="" style="ellipse;whiteSpace=wrap;html=1;aspect=fixed;" vertex="1" parent="jyjrXBeGag7pcf7ObZyp-298">
          <mxGeometry x="554.5" y="95" width="28" height="28" as="geometry" />
        </mxCell>
        <mxCell id="jyjrXBeGag7pcf7ObZyp-310" value="" style="ellipse;whiteSpace=wrap;html=1;aspect=fixed;fillColor=#2077e9;strokeColor=none;" vertex="1" parent="jyjrXBeGag7pcf7ObZyp-298">
          <mxGeometry x="558.6300000000001" y="99.11999999999989" width="19.75" height="19.75" as="geometry" />
        </mxCell>
        <mxCell id="jyjrXBeGag7pcf7ObZyp-311" value="" style="ellipse;whiteSpace=wrap;html=1;aspect=fixed;" vertex="1" parent="jyjrXBeGag7pcf7ObZyp-298">
          <mxGeometry x="437" y="97.00999999999999" width="28" height="28" as="geometry" />
        </mxCell>
        <mxCell id="jyjrXBeGag7pcf7ObZyp-312" value="Cases" style="text;html=1;align=center;verticalAlign=middle;resizable=0;points=[];autosize=1;strokeColor=none;fillColor=none;fontColor=#FFFFFF;" vertex="1" parent="jyjrXBeGag7pcf7ObZyp-298">
          <mxGeometry x="582.5" y="95" width="60" height="30" as="geometry" />
        </mxCell>
        <mxCell id="jyjrXBeGag7pcf7ObZyp-313" value="Sweep" style="text;html=1;align=center;verticalAlign=middle;resizable=0;points=[];autosize=1;strokeColor=none;fillColor=none;fontColor=#FFFFFF;" vertex="1" parent="jyjrXBeGag7pcf7ObZyp-298">
          <mxGeometry x="465" y="95" width="60" height="30" as="geometry" />
        </mxCell>
        <mxCell id="jyjrXBeGag7pcf7ObZyp-314" value="" style="rounded=0;whiteSpace=wrap;html=1;fillColor=#33373b;strokeColor=#6c757d;" vertex="1" parent="jyjrXBeGag7pcf7ObZyp-298">
          <mxGeometry x="395" y="176" width="265" height="205" as="geometry" />
        </mxCell>
        <mxCell id="jyjrXBeGag7pcf7ObZyp-315" value="" style="rounded=1;whiteSpace=wrap;html=1;fillColor=#6c757d;strokeColor=#6c757d;" vertex="1" parent="jyjrXBeGag7pcf7ObZyp-298">
          <mxGeometry x="620" y="146" width="40" height="30" as="geometry" />
        </mxCell>
        <mxCell id="jyjrXBeGag7pcf7ObZyp-316" value="" style="shape=cross;whiteSpace=wrap;html=1;fillColor=#6c757d;strokeColor=#FFFFFF;" vertex="1" parent="jyjrXBeGag7pcf7ObZyp-298">
          <mxGeometry x="630" y="151.5" width="20" height="19" as="geometry" />
        </mxCell>
        <mxCell id="jyjrXBeGag7pcf7ObZyp-317" value="1" style="text;strokeColor=none;fillColor=none;align=left;verticalAlign=middle;spacingLeft=4;spacingRight=4;overflow=hidden;points=[[0,0.5],[1,0.5]];portConstraint=eastwest;rotatable=0;whiteSpace=wrap;html=1;fontColor=#FFFFFF;" vertex="1" parent="jyjrXBeGag7pcf7ObZyp-298">
          <mxGeometry x="395" y="176" width="265" height="30" as="geometry" />
        </mxCell>
        <mxCell id="jyjrXBeGag7pcf7ObZyp-318" value="5" style="text;strokeColor=none;fillColor=none;align=left;verticalAlign=middle;spacingLeft=4;spacingRight=4;overflow=hidden;points=[[0,0.5],[1,0.5]];portConstraint=eastwest;rotatable=0;whiteSpace=wrap;html=1;fontColor=#FFFFFF;" vertex="1" parent="jyjrXBeGag7pcf7ObZyp-298">
          <mxGeometry x="395" y="206" width="265" height="30" as="geometry" />
        </mxCell>
        <mxCell id="jyjrXBeGag7pcf7ObZyp-319" value="7" style="text;strokeColor=none;fillColor=none;align=left;verticalAlign=middle;spacingLeft=4;spacingRight=4;overflow=hidden;points=[[0,0.5],[1,0.5]];portConstraint=eastwest;rotatable=0;whiteSpace=wrap;html=1;fontColor=#FFFFFF;" vertex="1" parent="jyjrXBeGag7pcf7ObZyp-298">
          <mxGeometry x="395" y="236" width="265" height="30" as="geometry" />
        </mxCell>
        <mxCell id="jyjrXBeGag7pcf7ObZyp-320" value="20" style="text;strokeColor=none;fillColor=none;align=left;verticalAlign=middle;spacingLeft=4;spacingRight=4;overflow=hidden;points=[[0,0.5],[1,0.5]];portConstraint=eastwest;rotatable=0;whiteSpace=wrap;html=1;fontColor=#FFFFFF;" vertex="1" parent="jyjrXBeGag7pcf7ObZyp-298">
          <mxGeometry x="395" y="266" width="265" height="30" as="geometry" />
        </mxCell>
        <mxCell id="jyjrXBeGag7pcf7ObZyp-321" value="Variable 5&amp;nbsp; &amp;nbsp; &amp;nbsp;[0, 12, 13, 210, 1]" style="text;align=left;verticalAlign=middle;spacingLeft=4;spacingRight=4;overflow=hidden;points=[[0,0.5],[1,0.5]];portConstraint=eastwest;rotatable=0;whiteSpace=wrap;html=1;shadow=0;fillColor=#40454b;strokeColor=none;fontColor=#FFFFFF;rounded=1;" vertex="1" parent="jyjrXBeGag7pcf7ObZyp-298">
          <mxGeometry x="395" y="470" width="265" height="30" as="geometry" />
        </mxCell>
        <mxCell id="jyjrXBeGag7pcf7ObZyp-322" value="Variable 2&amp;nbsp; &amp;nbsp; &amp;nbsp;[1: 5: 20]" style="text;align=left;verticalAlign=middle;spacingLeft=4;spacingRight=4;overflow=hidden;points=[[0,0.5],[1,0.5]];portConstraint=eastwest;rotatable=0;whiteSpace=wrap;html=1;fillStyle=solid;perimeterSpacing=0;fillColor=#40454b;strokeColor=none;fontColor=#FFFFFF;rounded=1;" vertex="1" parent="jyjrXBeGag7pcf7ObZyp-298">
          <mxGeometry x="395" y="432" width="265" height="30" as="geometry" />
        </mxCell>
        <mxCell id="jyjrXBeGag7pcf7ObZyp-323" value="Variable 1&amp;nbsp; &amp;nbsp; &amp;nbsp;[0, 12, 13, 210, 1, 20, 10..." style="text;align=left;verticalAlign=middle;spacingLeft=4;spacingRight=4;overflow=hidden;points=[[0,0.5],[1,0.5]];portConstraint=eastwest;rotatable=0;whiteSpace=wrap;html=1;shadow=0;fillColor=#40454b;strokeColor=none;fontColor=#FFFFFF;rounded=1;" vertex="1" parent="jyjrXBeGag7pcf7ObZyp-298">
          <mxGeometry x="395" y="510" width="265" height="30" as="geometry" />
        </mxCell>
        <mxCell id="jyjrXBeGag7pcf7ObZyp-324" value="Save" style="rounded=1;whiteSpace=wrap;html=1;fillColor=#2077e9;strokeColor=none;fontColor=#FFFFFF;" vertex="1" parent="jyjrXBeGag7pcf7ObZyp-298">
          <mxGeometry x="510" y="381" width="150" height="35" as="geometry" />
        </mxCell>
        <mxCell id="jyjrXBeGag7pcf7ObZyp-325" value="Num Runs" style="text;html=1;align=left;verticalAlign=middle;whiteSpace=wrap;rounded=0;fontColor=#FFFFFF;" vertex="1" parent="jyjrXBeGag7pcf7ObZyp-298">
          <mxGeometry x="395" y="381" width="75" height="30" as="geometry" />
        </mxCell>
        <mxCell id="jyjrXBeGag7pcf7ObZyp-326" value="4" style="text;html=1;align=center;verticalAlign=middle;whiteSpace=wrap;rounded=0;fontColor=#FFFFFF;" vertex="1" parent="jyjrXBeGag7pcf7ObZyp-298">
          <mxGeometry x="465" y="381" width="20" height="30" as="geometry" />
        </mxCell>
        <mxCell id="jyjrXBeGag7pcf7ObZyp-327" value="&lt;h1 style=&quot;font-size: 18px;&quot;&gt;Batch Variables&lt;/h1&gt;" style="text;html=1;spacing=5;spacingTop=-20;whiteSpace=wrap;overflow=hidden;rounded=0;fontSize=18;align=left;verticalAlign=middle;fontColor=#FFFFFF;" vertex="1" parent="jyjrXBeGag7pcf7ObZyp-298">
          <mxGeometry x="20" y="18" width="160" height="22" as="geometry" />
        </mxCell>
        <mxCell id="jyjrXBeGag7pcf7ObZyp-328" value="" style="html=1;verticalLabelPosition=bottom;align=center;labelBackgroundColor=#ffffff;verticalAlign=top;strokeWidth=2;strokeColor=#6c757d;shadow=0;dashed=0;shape=mxgraph.ios7.icons.help;fillColor=#33373b;" vertex="1" parent="jyjrXBeGag7pcf7ObZyp-207">
          <mxGeometry x="860" y="10" width="20" height="20" as="geometry" />
        </mxCell>
      </root>
    </mxGraphModel>
  </diagram>
  <diagram id="eydR_96oPqCiav8E_pGw" name="Light">
    <mxGraphModel dx="4226" dy="3417" grid="1" gridSize="10" guides="1" tooltips="1" connect="1" arrows="1" fold="1" page="1" pageScale="1" pageWidth="850" pageHeight="1100" math="0" shadow="0">
      <root>
        <mxCell id="0" />
        <mxCell id="1" parent="0" />
        <mxCell id="kWajyOAfAHfTd0w6ghd_-1" value="Batch Generator" style="swimlane;fontSize=24;startSize=30;" vertex="1" parent="1">
          <mxGeometry x="1770" y="470" width="1520" height="1530" as="geometry" />
        </mxCell>
        <mxCell id="kWajyOAfAHfTd0w6ghd_-2" value="" style="swimlane;startSize=0;rounded=1;fillStyle=auto;shadow=0;swimlaneFillColor=#F5F5F5;strokeColor=none;fillColor=none;swimlaneLine=1;" vertex="1" parent="kWajyOAfAHfTd0w6ghd_-1">
          <mxGeometry x="20" y="60" width="710" height="700" as="geometry">
            <mxRectangle x="1730" y="190" width="50" height="40" as="alternateBounds" />
          </mxGeometry>
        </mxCell>
        <mxCell id="kWajyOAfAHfTd0w6ghd_-3" value="Search" style="rounded=1;whiteSpace=wrap;html=1;" vertex="1" parent="kWajyOAfAHfTd0w6ghd_-2">
          <mxGeometry x="20" y="146.89" width="300" height="40" as="geometry" />
        </mxCell>
        <mxCell id="kWajyOAfAHfTd0w6ghd_-4" value="" style="rounded=0;whiteSpace=wrap;html=1;" vertex="1" parent="kWajyOAfAHfTd0w6ghd_-2">
          <mxGeometry x="20" y="188" width="300" height="492" as="geometry" />
        </mxCell>
        <mxCell id="kWajyOAfAHfTd0w6ghd_-5" value="1" style="rounded=1;whiteSpace=wrap;html=1;" vertex="1" parent="kWajyOAfAHfTd0w6ghd_-2">
          <mxGeometry x="430" y="198" width="230" height="30" as="geometry" />
        </mxCell>
        <mxCell id="kWajyOAfAHfTd0w6ghd_-6" value="2" style="rounded=1;whiteSpace=wrap;html=1;" vertex="1" parent="kWajyOAfAHfTd0w6ghd_-2">
          <mxGeometry x="430" y="238" width="230" height="30" as="geometry" />
        </mxCell>
        <mxCell id="kWajyOAfAHfTd0w6ghd_-7" value="3" style="rounded=1;whiteSpace=wrap;html=1;glass=0;" vertex="1" parent="kWajyOAfAHfTd0w6ghd_-2">
          <mxGeometry x="430" y="278" width="230" height="30" as="geometry" />
        </mxCell>
        <mxCell id="kWajyOAfAHfTd0w6ghd_-8" value="Param 1" style="text;html=1;align=center;verticalAlign=middle;whiteSpace=wrap;rounded=0;" vertex="1" parent="kWajyOAfAHfTd0w6ghd_-2">
          <mxGeometry x="360" y="198" width="60" height="30" as="geometry" />
        </mxCell>
        <mxCell id="kWajyOAfAHfTd0w6ghd_-9" value="Param 2" style="text;html=1;align=center;verticalAlign=middle;whiteSpace=wrap;rounded=0;" vertex="1" parent="kWajyOAfAHfTd0w6ghd_-2">
          <mxGeometry x="360" y="238" width="60" height="30" as="geometry" />
        </mxCell>
        <mxCell id="kWajyOAfAHfTd0w6ghd_-10" value="Param 3" style="text;html=1;align=center;verticalAlign=middle;whiteSpace=wrap;rounded=0;" vertex="1" parent="kWajyOAfAHfTd0w6ghd_-2">
          <mxGeometry x="360" y="278" width="60" height="30" as="geometry" />
        </mxCell>
        <mxCell id="kWajyOAfAHfTd0w6ghd_-11" value="Input 1" style="text;strokeColor=none;fillColor=none;align=left;verticalAlign=middle;spacingLeft=4;spacingRight=4;overflow=hidden;points=[[0,0.5],[1,0.5]];portConstraint=eastwest;rotatable=0;whiteSpace=wrap;html=1;" vertex="1" parent="kWajyOAfAHfTd0w6ghd_-2">
          <mxGeometry x="20" y="188" width="300" height="30" as="geometry" />
        </mxCell>
        <mxCell id="kWajyOAfAHfTd0w6ghd_-12" value="Input 2" style="text;align=left;verticalAlign=middle;spacingLeft=4;spacingRight=4;overflow=hidden;points=[[0,0.5],[1,0.5]];portConstraint=eastwest;rotatable=0;whiteSpace=wrap;html=1;fillColor=none;fillStyle=solid;fontColor=#007FFF;" vertex="1" parent="kWajyOAfAHfTd0w6ghd_-2">
          <mxGeometry x="20" y="218" width="300" height="30" as="geometry" />
        </mxCell>
        <mxCell id="kWajyOAfAHfTd0w6ghd_-13" value="Input 3" style="text;strokeColor=#666666;fillColor=#f5f5f5;align=left;verticalAlign=middle;spacingLeft=4;spacingRight=4;overflow=hidden;points=[[0,0.5],[1,0.5]];portConstraint=eastwest;rotatable=0;whiteSpace=wrap;html=1;fontColor=#333333;" vertex="1" parent="kWajyOAfAHfTd0w6ghd_-2">
          <mxGeometry x="20" y="248" width="300" height="30" as="geometry" />
        </mxCell>
        <mxCell id="kWajyOAfAHfTd0w6ghd_-14" value="Input 6" style="text;strokeColor=none;fillColor=none;align=left;verticalAlign=middle;spacingLeft=4;spacingRight=4;overflow=hidden;points=[[0,0.5],[1,0.5]];portConstraint=eastwest;rotatable=0;whiteSpace=wrap;html=1;" vertex="1" parent="kWajyOAfAHfTd0w6ghd_-2">
          <mxGeometry x="20" y="338" width="300" height="30" as="geometry" />
        </mxCell>
        <mxCell id="kWajyOAfAHfTd0w6ghd_-15" value="Input 4" style="text;strokeColor=none;fillColor=none;align=left;verticalAlign=middle;spacingLeft=4;spacingRight=4;overflow=hidden;points=[[0,0.5],[1,0.5]];portConstraint=eastwest;rotatable=0;whiteSpace=wrap;html=1;" vertex="1" parent="kWajyOAfAHfTd0w6ghd_-2">
          <mxGeometry x="20" y="278" width="300" height="30" as="geometry" />
        </mxCell>
        <mxCell id="kWajyOAfAHfTd0w6ghd_-16" value="Input 5" style="text;strokeColor=none;fillColor=none;align=left;verticalAlign=middle;spacingLeft=4;spacingRight=4;overflow=hidden;points=[[0,0.5],[1,0.5]];portConstraint=eastwest;rotatable=0;whiteSpace=wrap;html=1;fontColor=#007FFF;" vertex="1" parent="kWajyOAfAHfTd0w6ghd_-2">
          <mxGeometry x="20" y="308" width="300" height="30" as="geometry" />
        </mxCell>
        <mxCell id="kWajyOAfAHfTd0w6ghd_-17" value="" style="html=1;verticalLabelPosition=bottom;align=center;labelBackgroundColor=#ffffff;verticalAlign=top;strokeWidth=2;strokeColor=default;shadow=0;dashed=0;shape=mxgraph.ios7.icons.looking_glass;" vertex="1" parent="kWajyOAfAHfTd0w6ghd_-2">
          <mxGeometry x="30" y="156.89" width="20" height="20" as="geometry" />
        </mxCell>
        <mxCell id="kWajyOAfAHfTd0w6ghd_-18" value="Distribution" style="rounded=1;whiteSpace=wrap;html=1;" vertex="1" parent="kWajyOAfAHfTd0w6ghd_-2">
          <mxGeometry x="360" y="146.89" width="300" height="40" as="geometry" />
        </mxCell>
        <mxCell id="kWajyOAfAHfTd0w6ghd_-19" value="" style="triangle;whiteSpace=wrap;html=1;direction=south;" vertex="1" parent="kWajyOAfAHfTd0w6ghd_-2">
          <mxGeometry x="627.5" y="161.89" width="20" height="10" as="geometry" />
        </mxCell>
        <mxCell id="kWajyOAfAHfTd0w6ghd_-20" value="" style="strokeWidth=1;html=1;shadow=0;dashed=0;shape=mxgraph.android.rrect;rSize=0;fillColor=none;strokeColor=none;" vertex="1" parent="kWajyOAfAHfTd0w6ghd_-2">
          <mxGeometry x="20" y="60" width="140" height="30" as="geometry" />
        </mxCell>
        <mxCell id="kWajyOAfAHfTd0w6ghd_-21" value="Target" style="strokeWidth=1;html=1;shadow=0;dashed=0;shape=mxgraph.android.anchor;fontStyle=1;fontColor=#666666;" vertex="1" parent="kWajyOAfAHfTd0w6ghd_-20">
          <mxGeometry x="40" width="50" height="30" as="geometry" />
        </mxCell>
        <mxCell id="kWajyOAfAHfTd0w6ghd_-22" value="Missile" style="strokeWidth=1;html=1;shadow=0;dashed=0;shape=mxgraph.android.anchor;fontStyle=1;fontColor=#666666;" vertex="1" parent="kWajyOAfAHfTd0w6ghd_-20">
          <mxGeometry x="90" width="50" height="30" as="geometry" />
        </mxCell>
        <mxCell id="kWajyOAfAHfTd0w6ghd_-23" value="Main" style="strokeWidth=1;html=1;shadow=0;dashed=0;shape=mxgraph.android.rrect;rSize=0;fontStyle=1;fillColor=none;strokeColor=none;fontColor=#666666;" vertex="1" parent="kWajyOAfAHfTd0w6ghd_-20">
          <mxGeometry width="40" height="30" as="geometry" />
        </mxCell>
        <mxCell id="kWajyOAfAHfTd0w6ghd_-24" value="" style="strokeWidth=1;html=1;shadow=0;dashed=0;shape=mxgraph.android.rrect;rSize=0;fillColor=#33b5e5;strokeColor=none;" vertex="1" parent="kWajyOAfAHfTd0w6ghd_-23">
          <mxGeometry y="27" width="40" height="3" as="geometry" />
        </mxCell>
        <mxCell id="kWajyOAfAHfTd0w6ghd_-25" value="&lt;h1 style=&quot;font-size: 18px;&quot;&gt;Inputs&lt;/h1&gt;" style="text;html=1;spacing=5;spacingTop=-20;whiteSpace=wrap;overflow=hidden;rounded=0;fontSize=18;align=left;verticalAlign=middle;" vertex="1" parent="kWajyOAfAHfTd0w6ghd_-2">
          <mxGeometry x="20" y="20" width="63" height="22" as="geometry" />
        </mxCell>
        <mxCell id="kWajyOAfAHfTd0w6ghd_-26" value="" style="swimlane;startSize=0;swimlaneFillColor=#F5F5F5;strokeColor=none;fillColor=none;" vertex="1" parent="kWajyOAfAHfTd0w6ghd_-1">
          <mxGeometry x="780" y="60" width="710" height="700" as="geometry">
            <mxRectangle x="2490" y="190" width="50" height="40" as="alternateBounds" />
          </mxGeometry>
        </mxCell>
        <mxCell id="kWajyOAfAHfTd0w6ghd_-27" value="Search" style="rounded=1;whiteSpace=wrap;html=1;" vertex="1" parent="kWajyOAfAHfTd0w6ghd_-26">
          <mxGeometry x="20" y="150.89" width="300" height="40" as="geometry" />
        </mxCell>
        <mxCell id="kWajyOAfAHfTd0w6ghd_-28" value="" style="rounded=0;whiteSpace=wrap;html=1;" vertex="1" parent="kWajyOAfAHfTd0w6ghd_-26">
          <mxGeometry x="20" y="192" width="300" height="488" as="geometry" />
        </mxCell>
        <mxCell id="kWajyOAfAHfTd0w6ghd_-29" value="1" style="rounded=1;whiteSpace=wrap;html=1;" vertex="1" parent="kWajyOAfAHfTd0w6ghd_-26">
          <mxGeometry x="430" y="195.89" width="230" height="30" as="geometry" />
        </mxCell>
        <mxCell id="kWajyOAfAHfTd0w6ghd_-30" value="2" style="rounded=1;whiteSpace=wrap;html=1;" vertex="1" parent="kWajyOAfAHfTd0w6ghd_-26">
          <mxGeometry x="430" y="235.89" width="230" height="30" as="geometry" />
        </mxCell>
        <mxCell id="kWajyOAfAHfTd0w6ghd_-31" value="3" style="rounded=1;whiteSpace=wrap;html=1;glass=0;" vertex="1" parent="kWajyOAfAHfTd0w6ghd_-26">
          <mxGeometry x="430" y="275.89" width="230" height="30" as="geometry" />
        </mxCell>
        <mxCell id="kWajyOAfAHfTd0w6ghd_-32" value="Start" style="text;html=1;align=left;verticalAlign=middle;whiteSpace=wrap;rounded=0;" vertex="1" parent="kWajyOAfAHfTd0w6ghd_-26">
          <mxGeometry x="360" y="195.89" width="60" height="30" as="geometry" />
        </mxCell>
        <mxCell id="kWajyOAfAHfTd0w6ghd_-33" value="Stop" style="text;html=1;align=left;verticalAlign=middle;whiteSpace=wrap;rounded=0;" vertex="1" parent="kWajyOAfAHfTd0w6ghd_-26">
          <mxGeometry x="360" y="235.89" width="60" height="30" as="geometry" />
        </mxCell>
        <mxCell id="kWajyOAfAHfTd0w6ghd_-34" value="Decimation" style="text;html=1;align=left;verticalAlign=middle;whiteSpace=wrap;rounded=0;" vertex="1" parent="kWajyOAfAHfTd0w6ghd_-26">
          <mxGeometry x="360" y="275.89" width="60" height="30" as="geometry" />
        </mxCell>
        <mxCell id="kWajyOAfAHfTd0w6ghd_-35" value="Output 1" style="text;strokeColor=none;fillColor=none;align=left;verticalAlign=middle;spacingLeft=4;spacingRight=4;overflow=hidden;points=[[0,0.5],[1,0.5]];portConstraint=eastwest;rotatable=0;whiteSpace=wrap;html=1;" vertex="1" parent="kWajyOAfAHfTd0w6ghd_-26">
          <mxGeometry x="20" y="192" width="300" height="30" as="geometry" />
        </mxCell>
        <mxCell id="kWajyOAfAHfTd0w6ghd_-36" value="Output 2" style="text;align=left;verticalAlign=middle;spacingLeft=4;spacingRight=4;overflow=hidden;points=[[0,0.5],[1,0.5]];portConstraint=eastwest;rotatable=0;whiteSpace=wrap;html=1;fillColor=none;fillStyle=solid;fontColor=#007FFF;" vertex="1" parent="kWajyOAfAHfTd0w6ghd_-26">
          <mxGeometry x="20" y="222" width="300" height="30" as="geometry" />
        </mxCell>
        <mxCell id="kWajyOAfAHfTd0w6ghd_-37" value="Output 3" style="text;strokeColor=#666666;fillColor=#f5f5f5;align=left;verticalAlign=middle;spacingLeft=4;spacingRight=4;overflow=hidden;points=[[0,0.5],[1,0.5]];portConstraint=eastwest;rotatable=0;whiteSpace=wrap;html=1;fontColor=#333333;" vertex="1" parent="kWajyOAfAHfTd0w6ghd_-26">
          <mxGeometry x="20" y="252" width="300" height="30" as="geometry" />
        </mxCell>
        <mxCell id="kWajyOAfAHfTd0w6ghd_-38" value="Output 6" style="text;strokeColor=none;fillColor=none;align=left;verticalAlign=middle;spacingLeft=4;spacingRight=4;overflow=hidden;points=[[0,0.5],[1,0.5]];portConstraint=eastwest;rotatable=0;whiteSpace=wrap;html=1;" vertex="1" parent="kWajyOAfAHfTd0w6ghd_-26">
          <mxGeometry x="20" y="342" width="300" height="30" as="geometry" />
        </mxCell>
        <mxCell id="kWajyOAfAHfTd0w6ghd_-39" value="Output 4" style="text;strokeColor=none;fillColor=none;align=left;verticalAlign=middle;spacingLeft=4;spacingRight=4;overflow=hidden;points=[[0,0.5],[1,0.5]];portConstraint=eastwest;rotatable=0;whiteSpace=wrap;html=1;" vertex="1" parent="kWajyOAfAHfTd0w6ghd_-26">
          <mxGeometry x="20" y="282" width="300" height="30" as="geometry" />
        </mxCell>
        <mxCell id="kWajyOAfAHfTd0w6ghd_-40" value="Output 5" style="text;strokeColor=none;fillColor=none;align=left;verticalAlign=middle;spacingLeft=4;spacingRight=4;overflow=hidden;points=[[0,0.5],[1,0.5]];portConstraint=eastwest;rotatable=0;whiteSpace=wrap;html=1;fontColor=#007FFF;" vertex="1" parent="kWajyOAfAHfTd0w6ghd_-26">
          <mxGeometry x="20" y="312" width="300" height="30" as="geometry" />
        </mxCell>
        <mxCell id="kWajyOAfAHfTd0w6ghd_-41" value="" style="html=1;verticalLabelPosition=bottom;align=center;labelBackgroundColor=#ffffff;verticalAlign=top;strokeWidth=2;strokeColor=default;shadow=0;dashed=0;shape=mxgraph.ios7.icons.looking_glass;" vertex="1" parent="kWajyOAfAHfTd0w6ghd_-26">
          <mxGeometry x="30" y="160.89" width="20" height="20" as="geometry" />
        </mxCell>
        <mxCell id="kWajyOAfAHfTd0w6ghd_-42" value="" style="whiteSpace=wrap;html=1;aspect=fixed;" vertex="1" parent="kWajyOAfAHfTd0w6ghd_-26">
          <mxGeometry x="360" y="160.89" width="20" height="20" as="geometry" />
        </mxCell>
        <mxCell id="kWajyOAfAHfTd0w6ghd_-43" value="" style="html=1;verticalLabelPosition=bottom;labelBackgroundColor=#ffffff;verticalAlign=top;shadow=0;dashed=0;strokeWidth=2;shape=mxgraph.ios7.misc.check;strokeColor=#0080f0;" vertex="1" parent="kWajyOAfAHfTd0w6ghd_-26">
          <mxGeometry x="365" y="166.89" width="10" height="8" as="geometry" />
        </mxCell>
        <mxCell id="kWajyOAfAHfTd0w6ghd_-44" value="Enable" style="text;html=1;align=left;verticalAlign=middle;whiteSpace=wrap;rounded=0;" vertex="1" parent="kWajyOAfAHfTd0w6ghd_-26">
          <mxGeometry x="430" y="155.89" width="60" height="30" as="geometry" />
        </mxCell>
        <mxCell id="kWajyOAfAHfTd0w6ghd_-45" value="" style="whiteSpace=wrap;html=1;aspect=fixed;" vertex="1" parent="kWajyOAfAHfTd0w6ghd_-26">
          <mxGeometry x="290" y="257" width="20" height="20" as="geometry" />
        </mxCell>
        <mxCell id="kWajyOAfAHfTd0w6ghd_-46" value="" style="html=1;verticalLabelPosition=bottom;labelBackgroundColor=#ffffff;verticalAlign=top;shadow=0;dashed=0;strokeWidth=2;shape=mxgraph.ios7.misc.check;strokeColor=#0080f0;" vertex="1" parent="kWajyOAfAHfTd0w6ghd_-26">
          <mxGeometry x="295" y="263" width="10" height="8" as="geometry" />
        </mxCell>
        <mxCell id="kWajyOAfAHfTd0w6ghd_-47" value="" style="whiteSpace=wrap;html=1;aspect=fixed;" vertex="1" parent="kWajyOAfAHfTd0w6ghd_-26">
          <mxGeometry x="290" y="347" width="20" height="20" as="geometry" />
        </mxCell>
        <mxCell id="kWajyOAfAHfTd0w6ghd_-48" value="" style="whiteSpace=wrap;html=1;aspect=fixed;" vertex="1" parent="kWajyOAfAHfTd0w6ghd_-26">
          <mxGeometry x="290" y="287" width="20" height="20" as="geometry" />
        </mxCell>
        <mxCell id="kWajyOAfAHfTd0w6ghd_-49" value="" style="whiteSpace=wrap;html=1;aspect=fixed;" vertex="1" parent="kWajyOAfAHfTd0w6ghd_-26">
          <mxGeometry x="290" y="197" width="20" height="20" as="geometry" />
        </mxCell>
        <mxCell id="kWajyOAfAHfTd0w6ghd_-50" value="" style="whiteSpace=wrap;html=1;aspect=fixed;" vertex="1" parent="kWajyOAfAHfTd0w6ghd_-26">
          <mxGeometry x="290" y="227" width="20" height="20" as="geometry" />
        </mxCell>
        <mxCell id="kWajyOAfAHfTd0w6ghd_-51" value="" style="whiteSpace=wrap;html=1;aspect=fixed;" vertex="1" parent="kWajyOAfAHfTd0w6ghd_-26">
          <mxGeometry x="290" y="317" width="20" height="20" as="geometry" />
        </mxCell>
        <mxCell id="kWajyOAfAHfTd0w6ghd_-52" value="" style="html=1;verticalLabelPosition=bottom;labelBackgroundColor=#ffffff;verticalAlign=top;shadow=0;dashed=0;strokeWidth=2;shape=mxgraph.ios7.misc.check;strokeColor=#0080f0;" vertex="1" parent="kWajyOAfAHfTd0w6ghd_-26">
          <mxGeometry x="295" y="323" width="10" height="8" as="geometry" />
        </mxCell>
        <mxCell id="kWajyOAfAHfTd0w6ghd_-53" value="" style="strokeWidth=1;html=1;shadow=0;dashed=0;shape=mxgraph.android.rrect;rSize=0;fillColor=none;strokeColor=none;" vertex="1" parent="kWajyOAfAHfTd0w6ghd_-26">
          <mxGeometry x="20" y="64" width="140" height="30" as="geometry" />
        </mxCell>
        <mxCell id="kWajyOAfAHfTd0w6ghd_-54" value="Main" style="strokeWidth=1;html=1;shadow=0;dashed=0;shape=mxgraph.android.anchor;fontStyle=1;fontColor=#666666;" vertex="1" parent="kWajyOAfAHfTd0w6ghd_-53">
          <mxGeometry width="40" height="30" as="geometry" />
        </mxCell>
        <mxCell id="kWajyOAfAHfTd0w6ghd_-55" value="Missile" style="strokeWidth=1;html=1;shadow=0;dashed=0;shape=mxgraph.android.anchor;fontStyle=1;fontColor=#666666;" vertex="1" parent="kWajyOAfAHfTd0w6ghd_-53">
          <mxGeometry x="90" width="50" height="30" as="geometry" />
        </mxCell>
        <mxCell id="kWajyOAfAHfTd0w6ghd_-56" value="Target" style="strokeWidth=1;html=1;shadow=0;dashed=0;shape=mxgraph.android.rrect;rSize=0;fontStyle=1;fillColor=none;strokeColor=none;fontColor=#666666;" vertex="1" parent="kWajyOAfAHfTd0w6ghd_-53">
          <mxGeometry x="40" width="50" height="30" as="geometry" />
        </mxCell>
        <mxCell id="kWajyOAfAHfTd0w6ghd_-57" value="" style="strokeWidth=1;html=1;shadow=0;dashed=0;shape=mxgraph.android.rrect;rSize=0;fillColor=#33b5e5;strokeColor=none;" vertex="1" parent="kWajyOAfAHfTd0w6ghd_-56">
          <mxGeometry y="27" width="50" height="3" as="geometry" />
        </mxCell>
        <mxCell id="kWajyOAfAHfTd0w6ghd_-58" value="&lt;h1 style=&quot;font-size: 18px;&quot;&gt;Outputs&lt;/h1&gt;" style="text;html=1;spacing=5;spacingTop=-20;whiteSpace=wrap;overflow=hidden;rounded=0;fontSize=18;align=left;verticalAlign=middle;" vertex="1" parent="kWajyOAfAHfTd0w6ghd_-26">
          <mxGeometry x="20" y="24" width="81.5" height="22" as="geometry" />
        </mxCell>
        <mxCell id="kWajyOAfAHfTd0w6ghd_-59" value="Target 1" style="rounded=1;whiteSpace=wrap;html=1;" vertex="1" parent="kWajyOAfAHfTd0w6ghd_-26">
          <mxGeometry x="20" y="104" width="300" height="40" as="geometry" />
        </mxCell>
        <mxCell id="kWajyOAfAHfTd0w6ghd_-60" value="" style="triangle;whiteSpace=wrap;html=1;direction=south;" vertex="1" parent="kWajyOAfAHfTd0w6ghd_-26">
          <mxGeometry x="290" y="119" width="20" height="10" as="geometry" />
        </mxCell>
        <mxCell id="kWajyOAfAHfTd0w6ghd_-61" value="" style="rounded=1;whiteSpace=wrap;html=1;" vertex="1" parent="kWajyOAfAHfTd0w6ghd_-26">
          <mxGeometry x="280" y="64" width="40" height="30" as="geometry" />
        </mxCell>
        <mxCell id="kWajyOAfAHfTd0w6ghd_-62" value="" style="shape=cross;whiteSpace=wrap;html=1;" vertex="1" parent="kWajyOAfAHfTd0w6ghd_-26">
          <mxGeometry x="290" y="69.5" width="20" height="19" as="geometry" />
        </mxCell>
        <mxCell id="kWajyOAfAHfTd0w6ghd_-63" value="" style="swimlane;startSize=0;strokeColor=none;swimlaneFillColor=#F5F5F5;fillColor=none;" vertex="1" parent="kWajyOAfAHfTd0w6ghd_-1">
          <mxGeometry x="780" y="820" width="710" height="700" as="geometry" />
        </mxCell>
        <mxCell id="kWajyOAfAHfTd0w6ghd_-64" value="Num MC" style="text;html=1;align=left;verticalAlign=middle;whiteSpace=wrap;rounded=0;" vertex="1" parent="kWajyOAfAHfTd0w6ghd_-63">
          <mxGeometry x="362.5" y="156.5" width="60" height="30" as="geometry" />
        </mxCell>
        <mxCell id="kWajyOAfAHfTd0w6ghd_-65" value="Num Runs" style="text;html=1;align=left;verticalAlign=middle;whiteSpace=wrap;rounded=0;" vertex="1" parent="kWajyOAfAHfTd0w6ghd_-63">
          <mxGeometry x="362.5" y="326" width="75" height="30" as="geometry" />
        </mxCell>
        <mxCell id="kWajyOAfAHfTd0w6ghd_-66" value="2000" style="text;html=1;align=center;verticalAlign=middle;whiteSpace=wrap;rounded=0;" vertex="1" parent="kWajyOAfAHfTd0w6ghd_-63">
          <mxGeometry x="432.5" y="326" width="50" height="30" as="geometry" />
        </mxCell>
        <mxCell id="kWajyOAfAHfTd0w6ghd_-67" value="" style="whiteSpace=wrap;html=1;aspect=fixed;" vertex="1" parent="kWajyOAfAHfTd0w6ghd_-63">
          <mxGeometry x="362.5" y="237" width="20" height="20" as="geometry" />
        </mxCell>
        <mxCell id="kWajyOAfAHfTd0w6ghd_-68" value="" style="html=1;verticalLabelPosition=bottom;labelBackgroundColor=#ffffff;verticalAlign=top;shadow=0;dashed=0;strokeWidth=2;shape=mxgraph.ios7.misc.check;strokeColor=#0080f0;" vertex="1" parent="kWajyOAfAHfTd0w6ghd_-63">
          <mxGeometry x="367.5" y="243" width="10" height="8" as="geometry" />
        </mxCell>
        <mxCell id="kWajyOAfAHfTd0w6ghd_-69" value="Save last point" style="text;html=1;align=left;verticalAlign=middle;whiteSpace=wrap;rounded=0;" vertex="1" parent="kWajyOAfAHfTd0w6ghd_-63">
          <mxGeometry x="432.5" y="232" width="85" height="30" as="geometry" />
        </mxCell>
        <mxCell id="kWajyOAfAHfTd0w6ghd_-70" value="" style="whiteSpace=wrap;html=1;aspect=fixed;" vertex="1" parent="kWajyOAfAHfTd0w6ghd_-63">
          <mxGeometry x="362.5" y="271" width="20" height="20" as="geometry" />
        </mxCell>
        <mxCell id="kWajyOAfAHfTd0w6ghd_-71" value="Use point value" style="text;html=1;align=left;verticalAlign=middle;whiteSpace=wrap;rounded=0;" vertex="1" parent="kWajyOAfAHfTd0w6ghd_-63">
          <mxGeometry x="432.5" y="266" width="85" height="30" as="geometry" />
        </mxCell>
        <mxCell id="kWajyOAfAHfTd0w6ghd_-72" value="Generate" style="rounded=1;whiteSpace=wrap;html=1;fillColor=#dae8fc;strokeColor=#6c8ebf;" vertex="1" parent="kWajyOAfAHfTd0w6ghd_-63">
          <mxGeometry x="540" y="630" width="150" height="50" as="geometry" />
        </mxCell>
        <mxCell id="kWajyOAfAHfTd0w6ghd_-73" value="Cancel" style="rounded=1;whiteSpace=wrap;html=1;" vertex="1" parent="kWajyOAfAHfTd0w6ghd_-63">
          <mxGeometry x="390" y="630" width="150" height="50" as="geometry" />
        </mxCell>
        <mxCell id="kWajyOAfAHfTd0w6ghd_-74" value="1" style="rounded=1;whiteSpace=wrap;html=1;" vertex="1" parent="kWajyOAfAHfTd0w6ghd_-63">
          <mxGeometry x="362.5" y="186.5" width="230" height="30" as="geometry" />
        </mxCell>
        <mxCell id="kWajyOAfAHfTd0w6ghd_-75" value="Num Plots" style="text;html=1;align=left;verticalAlign=middle;whiteSpace=wrap;rounded=0;" vertex="1" parent="kWajyOAfAHfTd0w6ghd_-63">
          <mxGeometry x="362.5" y="356" width="75" height="30" as="geometry" />
        </mxCell>
        <mxCell id="kWajyOAfAHfTd0w6ghd_-76" value="3" style="text;html=1;align=center;verticalAlign=middle;whiteSpace=wrap;rounded=0;" vertex="1" parent="kWajyOAfAHfTd0w6ghd_-63">
          <mxGeometry x="432.5" y="356" width="50" height="30" as="geometry" />
        </mxCell>
        <mxCell id="kWajyOAfAHfTd0w6ghd_-77" value="Search" style="rounded=1;whiteSpace=wrap;html=1;" vertex="1" parent="kWajyOAfAHfTd0w6ghd_-63">
          <mxGeometry x="20" y="88.88999999999987" width="300" height="40" as="geometry" />
        </mxCell>
        <mxCell id="kWajyOAfAHfTd0w6ghd_-78" value="" style="rounded=0;whiteSpace=wrap;html=1;" vertex="1" parent="kWajyOAfAHfTd0w6ghd_-63">
          <mxGeometry x="20" y="130" width="300" height="550" as="geometry" />
        </mxCell>
        <mxCell id="kWajyOAfAHfTd0w6ghd_-79" value="Plot 1" style="text;strokeColor=none;fillColor=none;align=left;verticalAlign=middle;spacingLeft=4;spacingRight=4;overflow=hidden;points=[[0,0.5],[1,0.5]];portConstraint=eastwest;rotatable=0;whiteSpace=wrap;html=1;" vertex="1" parent="kWajyOAfAHfTd0w6ghd_-63">
          <mxGeometry x="20" y="130" width="300" height="30" as="geometry" />
        </mxCell>
        <mxCell id="kWajyOAfAHfTd0w6ghd_-80" value="Plot 2" style="text;align=left;verticalAlign=middle;spacingLeft=4;spacingRight=4;overflow=hidden;points=[[0,0.5],[1,0.5]];portConstraint=eastwest;rotatable=0;whiteSpace=wrap;html=1;fillStyle=solid;" vertex="1" parent="kWajyOAfAHfTd0w6ghd_-63">
          <mxGeometry x="20" y="160" width="300" height="30" as="geometry" />
        </mxCell>
        <mxCell id="kWajyOAfAHfTd0w6ghd_-81" value="Plot 3" style="text;strokeColor=none;fillColor=#f5f5f5;align=left;verticalAlign=middle;spacingLeft=4;spacingRight=4;overflow=hidden;points=[[0,0.5],[1,0.5]];portConstraint=eastwest;rotatable=0;whiteSpace=wrap;html=1;fontColor=#333333;" vertex="1" parent="kWajyOAfAHfTd0w6ghd_-63">
          <mxGeometry x="20" y="190" width="300" height="30" as="geometry" />
        </mxCell>
        <mxCell id="kWajyOAfAHfTd0w6ghd_-82" value="Plot 6" style="text;strokeColor=none;fillColor=#f5f5f5;align=left;verticalAlign=middle;spacingLeft=4;spacingRight=4;overflow=hidden;points=[[0,0.5],[1,0.5]];portConstraint=eastwest;rotatable=0;whiteSpace=wrap;html=1;fontColor=#333333;" vertex="1" parent="kWajyOAfAHfTd0w6ghd_-63">
          <mxGeometry x="20" y="280.0000000000002" width="300" height="30" as="geometry" />
        </mxCell>
        <mxCell id="kWajyOAfAHfTd0w6ghd_-83" value="Plot 4" style="text;strokeColor=none;fillColor=#f5f5f5;align=left;verticalAlign=middle;spacingLeft=4;spacingRight=4;overflow=hidden;points=[[0,0.5],[1,0.5]];portConstraint=eastwest;rotatable=0;whiteSpace=wrap;html=1;fontColor=#333333;" vertex="1" parent="kWajyOAfAHfTd0w6ghd_-63">
          <mxGeometry x="20" y="220.00000000000023" width="300" height="30" as="geometry" />
        </mxCell>
        <mxCell id="kWajyOAfAHfTd0w6ghd_-84" value="Plot 5" style="text;align=left;verticalAlign=middle;spacingLeft=4;spacingRight=4;overflow=hidden;points=[[0,0.5],[1,0.5]];portConstraint=eastwest;rotatable=0;whiteSpace=wrap;html=1;" vertex="1" parent="kWajyOAfAHfTd0w6ghd_-63">
          <mxGeometry x="20" y="250.00000000000023" width="300" height="30" as="geometry" />
        </mxCell>
        <mxCell id="kWajyOAfAHfTd0w6ghd_-85" value="" style="html=1;verticalLabelPosition=bottom;align=center;labelBackgroundColor=#ffffff;verticalAlign=top;strokeWidth=2;strokeColor=default;shadow=0;dashed=0;shape=mxgraph.ios7.icons.looking_glass;" vertex="1" parent="kWajyOAfAHfTd0w6ghd_-63">
          <mxGeometry x="30" y="98.88999999999987" width="20" height="20" as="geometry" />
        </mxCell>
        <mxCell id="kWajyOAfAHfTd0w6ghd_-86" value="Num Configs" style="text;html=1;align=left;verticalAlign=middle;whiteSpace=wrap;rounded=0;" vertex="1" parent="kWajyOAfAHfTd0w6ghd_-63">
          <mxGeometry x="362.5" y="386" width="75" height="30" as="geometry" />
        </mxCell>
        <mxCell id="kWajyOAfAHfTd0w6ghd_-87" value="13" style="text;html=1;align=center;verticalAlign=middle;whiteSpace=wrap;rounded=0;" vertex="1" parent="kWajyOAfAHfTd0w6ghd_-63">
          <mxGeometry x="432.5" y="386" width="50" height="30" as="geometry" />
        </mxCell>
        <mxCell id="kWajyOAfAHfTd0w6ghd_-88" value="variable_${Variable 2}_meters" style="rounded=1;whiteSpace=wrap;html=1;" vertex="1" parent="kWajyOAfAHfTd0w6ghd_-63">
          <mxGeometry x="360" y="122" width="230" height="30" as="geometry" />
        </mxCell>
        <mxCell id="kWajyOAfAHfTd0w6ghd_-89" value="Name" style="text;html=1;align=left;verticalAlign=middle;whiteSpace=wrap;rounded=0;" vertex="1" parent="kWajyOAfAHfTd0w6ghd_-63">
          <mxGeometry x="360" y="92" width="60" height="30" as="geometry" />
        </mxCell>
        <mxCell id="kWajyOAfAHfTd0w6ghd_-90" value="&lt;h1 style=&quot;font-size: 18px;&quot;&gt;Plot Teamplates&lt;/h1&gt;" style="text;html=1;spacing=5;spacingTop=-20;whiteSpace=wrap;overflow=hidden;rounded=0;fontSize=18;align=left;verticalAlign=middle;" vertex="1" parent="kWajyOAfAHfTd0w6ghd_-63">
          <mxGeometry x="20" y="18" width="150" height="22" as="geometry" />
        </mxCell>
        <mxCell id="kWajyOAfAHfTd0w6ghd_-91" value="&lt;h1 style=&quot;font-size: 18px;&quot;&gt;Settings&lt;/h1&gt;" style="text;html=1;spacing=5;spacingTop=-20;whiteSpace=wrap;overflow=hidden;rounded=0;fontSize=18;align=left;verticalAlign=middle;" vertex="1" parent="kWajyOAfAHfTd0w6ghd_-63">
          <mxGeometry x="360" y="18" width="150" height="22" as="geometry" />
        </mxCell>
        <mxCell id="kWajyOAfAHfTd0w6ghd_-92" value="" style="swimlane;startSize=0;fillColor=none;swimlaneFillColor=#F5F5F5;strokeColor=none;" vertex="1" parent="kWajyOAfAHfTd0w6ghd_-1">
          <mxGeometry x="20" y="820" width="710" height="700" as="geometry" />
        </mxCell>
        <mxCell id="kWajyOAfAHfTd0w6ghd_-93" value="" style="rounded=0;whiteSpace=wrap;html=1;" vertex="1" parent="kWajyOAfAHfTd0w6ghd_-92">
          <mxGeometry x="20" y="130" width="300" height="540" as="geometry" />
        </mxCell>
        <mxCell id="kWajyOAfAHfTd0w6ghd_-94" value="20" style="rounded=1;whiteSpace=wrap;html=1;" vertex="1" parent="kWajyOAfAHfTd0w6ghd_-92">
          <mxGeometry x="395" y="146" width="225" height="30" as="geometry" />
        </mxCell>
        <mxCell id="kWajyOAfAHfTd0w6ghd_-95" value="Variable 1" style="text;strokeColor=none;fillColor=none;align=left;verticalAlign=middle;spacingLeft=4;spacingRight=4;overflow=hidden;points=[[0,0.5],[1,0.5]];portConstraint=eastwest;rotatable=0;whiteSpace=wrap;html=1;" vertex="1" parent="kWajyOAfAHfTd0w6ghd_-92">
          <mxGeometry x="20" y="130" width="300" height="30" as="geometry" />
        </mxCell>
        <mxCell id="kWajyOAfAHfTd0w6ghd_-96" value="Variable 2" style="text;align=left;verticalAlign=middle;spacingLeft=4;spacingRight=4;overflow=hidden;points=[[0,0.5],[1,0.5]];portConstraint=eastwest;rotatable=0;whiteSpace=wrap;html=1;fillColor=none;fillStyle=solid;fontColor=#007FFF;" vertex="1" parent="kWajyOAfAHfTd0w6ghd_-92">
          <mxGeometry x="20" y="160" width="300" height="30" as="geometry" />
        </mxCell>
        <mxCell id="kWajyOAfAHfTd0w6ghd_-97" value="Variable 3" style="text;strokeColor=#666666;fillColor=#f5f5f5;align=left;verticalAlign=middle;spacingLeft=4;spacingRight=4;overflow=hidden;points=[[0,0.5],[1,0.5]];portConstraint=eastwest;rotatable=0;whiteSpace=wrap;html=1;fontColor=#333333;" vertex="1" parent="kWajyOAfAHfTd0w6ghd_-92">
          <mxGeometry x="20" y="190" width="300" height="30" as="geometry" />
        </mxCell>
        <mxCell id="kWajyOAfAHfTd0w6ghd_-98" value="Variable 6" style="text;strokeColor=none;fillColor=none;align=left;verticalAlign=middle;spacingLeft=4;spacingRight=4;overflow=hidden;points=[[0,0.5],[1,0.5]];portConstraint=eastwest;rotatable=0;whiteSpace=wrap;html=1;" vertex="1" parent="kWajyOAfAHfTd0w6ghd_-92">
          <mxGeometry x="20" y="280" width="300" height="30" as="geometry" />
        </mxCell>
        <mxCell id="kWajyOAfAHfTd0w6ghd_-99" value="Variable 4" style="text;strokeColor=none;fillColor=none;align=left;verticalAlign=middle;spacingLeft=4;spacingRight=4;overflow=hidden;points=[[0,0.5],[1,0.5]];portConstraint=eastwest;rotatable=0;whiteSpace=wrap;html=1;" vertex="1" parent="kWajyOAfAHfTd0w6ghd_-92">
          <mxGeometry x="20" y="220" width="300" height="30" as="geometry" />
        </mxCell>
        <mxCell id="kWajyOAfAHfTd0w6ghd_-100" value="Variable 5" style="text;strokeColor=none;fillColor=none;align=left;verticalAlign=middle;spacingLeft=4;spacingRight=4;overflow=hidden;points=[[0,0.5],[1,0.5]];portConstraint=eastwest;rotatable=0;whiteSpace=wrap;html=1;fontColor=#007FFF;" vertex="1" parent="kWajyOAfAHfTd0w6ghd_-92">
          <mxGeometry x="20" y="250" width="300" height="30" as="geometry" />
        </mxCell>
        <mxCell id="kWajyOAfAHfTd0w6ghd_-101" value="Add Input" style="rounded=1;whiteSpace=wrap;html=1;" vertex="1" parent="kWajyOAfAHfTd0w6ghd_-92">
          <mxGeometry x="20" y="90" width="150" height="40" as="geometry" />
        </mxCell>
        <mxCell id="kWajyOAfAHfTd0w6ghd_-102" value="Remove" style="rounded=1;whiteSpace=wrap;html=1;" vertex="1" parent="kWajyOAfAHfTd0w6ghd_-92">
          <mxGeometry x="170" y="90" width="150" height="40" as="geometry" />
        </mxCell>
        <mxCell id="kWajyOAfAHfTd0w6ghd_-103" value="" style="ellipse;whiteSpace=wrap;html=1;aspect=fixed;" vertex="1" parent="kWajyOAfAHfTd0w6ghd_-92">
          <mxGeometry x="554.5" y="95" width="28" height="28" as="geometry" />
        </mxCell>
        <mxCell id="kWajyOAfAHfTd0w6ghd_-104" value="" style="ellipse;whiteSpace=wrap;html=1;aspect=fixed;fillColor=#dae8fc;strokeColor=#6c8ebf;" vertex="1" parent="kWajyOAfAHfTd0w6ghd_-92">
          <mxGeometry x="558.6300000000001" y="99.11999999999989" width="19.75" height="19.75" as="geometry" />
        </mxCell>
        <mxCell id="kWajyOAfAHfTd0w6ghd_-105" value="" style="ellipse;whiteSpace=wrap;html=1;aspect=fixed;" vertex="1" parent="kWajyOAfAHfTd0w6ghd_-92">
          <mxGeometry x="437" y="97.00999999999999" width="28" height="28" as="geometry" />
        </mxCell>
        <mxCell id="kWajyOAfAHfTd0w6ghd_-106" value="Cases" style="text;html=1;align=center;verticalAlign=middle;resizable=0;points=[];autosize=1;strokeColor=none;fillColor=none;" vertex="1" parent="kWajyOAfAHfTd0w6ghd_-92">
          <mxGeometry x="582.5" y="95" width="60" height="30" as="geometry" />
        </mxCell>
        <mxCell id="kWajyOAfAHfTd0w6ghd_-107" value="Sweep" style="text;html=1;align=center;verticalAlign=middle;resizable=0;points=[];autosize=1;strokeColor=none;fillColor=none;" vertex="1" parent="kWajyOAfAHfTd0w6ghd_-92">
          <mxGeometry x="465" y="95" width="60" height="30" as="geometry" />
        </mxCell>
        <mxCell id="kWajyOAfAHfTd0w6ghd_-108" value="" style="rounded=0;whiteSpace=wrap;html=1;" vertex="1" parent="kWajyOAfAHfTd0w6ghd_-92">
          <mxGeometry x="395" y="176" width="265" height="205" as="geometry" />
        </mxCell>
        <mxCell id="kWajyOAfAHfTd0w6ghd_-109" value="" style="rounded=1;whiteSpace=wrap;html=1;" vertex="1" parent="kWajyOAfAHfTd0w6ghd_-92">
          <mxGeometry x="620" y="146" width="40" height="30" as="geometry" />
        </mxCell>
        <mxCell id="kWajyOAfAHfTd0w6ghd_-110" value="" style="shape=cross;whiteSpace=wrap;html=1;" vertex="1" parent="kWajyOAfAHfTd0w6ghd_-92">
          <mxGeometry x="630" y="151.5" width="20" height="19" as="geometry" />
        </mxCell>
        <mxCell id="kWajyOAfAHfTd0w6ghd_-111" value="1" style="text;strokeColor=none;fillColor=none;align=left;verticalAlign=middle;spacingLeft=4;spacingRight=4;overflow=hidden;points=[[0,0.5],[1,0.5]];portConstraint=eastwest;rotatable=0;whiteSpace=wrap;html=1;" vertex="1" parent="kWajyOAfAHfTd0w6ghd_-92">
          <mxGeometry x="395" y="176" width="265" height="30" as="geometry" />
        </mxCell>
        <mxCell id="kWajyOAfAHfTd0w6ghd_-112" value="5" style="text;strokeColor=none;fillColor=none;align=left;verticalAlign=middle;spacingLeft=4;spacingRight=4;overflow=hidden;points=[[0,0.5],[1,0.5]];portConstraint=eastwest;rotatable=0;whiteSpace=wrap;html=1;" vertex="1" parent="kWajyOAfAHfTd0w6ghd_-92">
          <mxGeometry x="395" y="206" width="265" height="30" as="geometry" />
        </mxCell>
        <mxCell id="kWajyOAfAHfTd0w6ghd_-113" value="7" style="text;strokeColor=none;fillColor=none;align=left;verticalAlign=middle;spacingLeft=4;spacingRight=4;overflow=hidden;points=[[0,0.5],[1,0.5]];portConstraint=eastwest;rotatable=0;whiteSpace=wrap;html=1;" vertex="1" parent="kWajyOAfAHfTd0w6ghd_-92">
          <mxGeometry x="395" y="236" width="265" height="30" as="geometry" />
        </mxCell>
        <mxCell id="kWajyOAfAHfTd0w6ghd_-114" value="20" style="text;strokeColor=none;fillColor=none;align=left;verticalAlign=middle;spacingLeft=4;spacingRight=4;overflow=hidden;points=[[0,0.5],[1,0.5]];portConstraint=eastwest;rotatable=0;whiteSpace=wrap;html=1;" vertex="1" parent="kWajyOAfAHfTd0w6ghd_-92">
          <mxGeometry x="395" y="266" width="265" height="30" as="geometry" />
        </mxCell>
        <mxCell id="kWajyOAfAHfTd0w6ghd_-115" value="Variable 5&amp;nbsp; &amp;nbsp; &amp;nbsp;[0, 12, 13, 210, 1]" style="text;align=left;verticalAlign=middle;spacingLeft=4;spacingRight=4;overflow=hidden;points=[[0,0.5],[1,0.5]];portConstraint=eastwest;rotatable=0;whiteSpace=wrap;html=1;shadow=0;fillColor=#f9f7ed;strokeColor=none;" vertex="1" parent="kWajyOAfAHfTd0w6ghd_-92">
          <mxGeometry x="395" y="470" width="265" height="30" as="geometry" />
        </mxCell>
        <mxCell id="kWajyOAfAHfTd0w6ghd_-116" value="Variable 2&amp;nbsp; &amp;nbsp; &amp;nbsp;[1: 5: 20]" style="text;align=left;verticalAlign=middle;spacingLeft=4;spacingRight=4;overflow=hidden;points=[[0,0.5],[1,0.5]];portConstraint=eastwest;rotatable=0;whiteSpace=wrap;html=1;fillStyle=solid;perimeterSpacing=0;fillColor=#f9f7ed;strokeColor=none;" vertex="1" parent="kWajyOAfAHfTd0w6ghd_-92">
          <mxGeometry x="395" y="432" width="265" height="30" as="geometry" />
        </mxCell>
        <mxCell id="kWajyOAfAHfTd0w6ghd_-117" value="Variable 1&amp;nbsp; &amp;nbsp; &amp;nbsp;[0, 12, 13, 210, 1, 20, 10..." style="text;align=left;verticalAlign=middle;spacingLeft=4;spacingRight=4;overflow=hidden;points=[[0,0.5],[1,0.5]];portConstraint=eastwest;rotatable=0;whiteSpace=wrap;html=1;shadow=0;fillColor=#f9f7ed;strokeColor=none;" vertex="1" parent="kWajyOAfAHfTd0w6ghd_-92">
          <mxGeometry x="395" y="510" width="265" height="30" as="geometry" />
        </mxCell>
        <mxCell id="kWajyOAfAHfTd0w6ghd_-118" value="Save" style="rounded=1;whiteSpace=wrap;html=1;fillColor=#dae8fc;strokeColor=#6c8ebf;" vertex="1" parent="kWajyOAfAHfTd0w6ghd_-92">
          <mxGeometry x="510" y="381" width="150" height="35" as="geometry" />
        </mxCell>
        <mxCell id="kWajyOAfAHfTd0w6ghd_-119" value="Num Runs" style="text;html=1;align=left;verticalAlign=middle;whiteSpace=wrap;rounded=0;" vertex="1" parent="kWajyOAfAHfTd0w6ghd_-92">
          <mxGeometry x="395" y="381" width="75" height="30" as="geometry" />
        </mxCell>
        <mxCell id="kWajyOAfAHfTd0w6ghd_-120" value="4" style="text;html=1;align=center;verticalAlign=middle;whiteSpace=wrap;rounded=0;" vertex="1" parent="kWajyOAfAHfTd0w6ghd_-92">
          <mxGeometry x="465" y="381" width="20" height="30" as="geometry" />
        </mxCell>
        <mxCell id="kWajyOAfAHfTd0w6ghd_-121" value="&lt;h1 style=&quot;font-size: 18px;&quot;&gt;Batch Variables&lt;/h1&gt;" style="text;html=1;spacing=5;spacingTop=-20;whiteSpace=wrap;overflow=hidden;rounded=0;fontSize=18;align=left;verticalAlign=middle;" vertex="1" parent="kWajyOAfAHfTd0w6ghd_-92">
          <mxGeometry x="20" y="18" width="160" height="22" as="geometry" />
        </mxCell>
        <mxCell id="kWajyOAfAHfTd0w6ghd_-122" value="" style="html=1;verticalLabelPosition=bottom;align=center;labelBackgroundColor=#ffffff;verticalAlign=top;strokeWidth=2;strokeColor=#0080F0;shadow=0;dashed=0;shape=mxgraph.ios7.icons.help;" vertex="1" parent="kWajyOAfAHfTd0w6ghd_-1">
          <mxGeometry x="860" y="10" width="20" height="20" as="geometry" />
        </mxCell>
      </root>
    </mxGraphModel>
  </diagram>
</mxfile>
